<?xml version="1.0" encoding="UTF-8"?>
<svg id="_图层_1" data-name="图层_1" xmlns="http://www.w3.org/2000/svg" viewBox="0 0 841.89 595.28">
  <defs>
    <style>
      .cls-1 {
        stroke: #29a339;
      }

      .cls-1, .cls-2, .cls-3, .cls-4, .cls-5, .cls-6, .cls-7, .cls-8, .cls-9, .cls-10 {
        stroke-miterlimit: 10;
      }

      .cls-1, .cls-2, .cls-3, .cls-5, .cls-6, .cls-7, .cls-8 {
        fill: none;
      }

      .cls-2 {
        stroke-width: 2px;
      }

      .cls-2, .cls-3, .cls-6, .cls-8, .cls-9 {
        stroke: #231815;
      }

      .cls-11 {
        fill: #e60012;
      }

      .cls-12 {
        fill: #231815;
      }

      .cls-3 {
        stroke-dasharray: 12.5 12.5;
      }

      .cls-4, .cls-7 {
        stroke: #22ac38;
      }

      .cls-4, .cls-10 {
        fill: #8fc31f;
      }

      .cls-5, .cls-10 {
        stroke: #e60012;
      }

      .cls-6 {
        stroke-dasharray: 12.27 12.27;
      }

      .cls-13 {
        fill: #22ac38;
      }

      .cls-9 {
        fill: #fff;
      }

      .cls-14 {
        fill: #d70051;
      }
    </style>
  </defs>
  <rect class="cls-9" x="318.34" y="225.38" width="102.1" height="36.73"/>
  <rect class="cls-9" x="469" y="228.49" width="69.1" height="30.5"/>
  <rect class="cls-9" x="469" y="288.56" width="69.1" height="31.44"/>
  <polygon class="cls-9" points="264.81 279.75 205.98 279.75 205.98 225.38 264.81 225.38 264.81 271.89 264.81 279.75"/>
  <g>
    <path class="cls-14" d="M465.81,223.56v-5.05h.77v.71c.16-.25.37-.45.63-.6.26-.15.56-.23.9-.23.37,0,.68.08.92.23.24.16.41.37.51.65.4-.59.92-.88,1.56-.88.5,0,.89.14,1.16.42s.4.7.4,1.28v3.47h-.85v-3.18c0-.34-.03-.59-.08-.74-.05-.15-.16-.27-.3-.36-.15-.09-.32-.14-.51-.14-.35,0-.65.12-.88.35-.24.24-.35.61-.35,1.13v2.93h-.86v-3.28c0-.38-.07-.67-.21-.86-.14-.19-.37-.29-.69-.29-.24,0-.46.06-.67.19-.2.13-.35.31-.44.56s-.14.6-.14,1.06v2.62h-.86Z"/>
    <path class="cls-14" d="M477.22,222.93c-.32.27-.62.46-.92.57-.29.11-.61.17-.94.17-.55,0-.98-.14-1.28-.41s-.45-.62-.45-1.04c0-.25.06-.47.17-.68.11-.2.26-.37.44-.49.18-.12.39-.22.62-.28.17-.04.42-.09.76-.13.69-.08,1.2-.18,1.53-.29,0-.12,0-.19,0-.22,0-.35-.08-.59-.24-.74-.22-.19-.54-.29-.97-.29-.4,0-.7.07-.89.21s-.33.39-.43.75l-.84-.11c.08-.36.2-.65.38-.87.17-.22.43-.39.76-.51.33-.12.71-.18,1.15-.18s.78.05,1.05.15c.27.1.47.23.59.38.13.15.22.35.27.58.03.15.04.41.04.79v1.14c0,.8.02,1.3.05,1.51.04.21.11.41.22.61h-.89c-.09-.18-.15-.39-.17-.62ZM477.15,221.02c-.31.13-.78.23-1.4.32-.35.05-.6.11-.75.17-.15.06-.26.16-.34.28s-.12.26-.12.41c0,.23.09.42.26.57s.42.23.76.23.62-.07.88-.22c.26-.14.45-.34.57-.59.09-.19.14-.48.14-.86v-.31Z"/>
    <path class="cls-14" d="M481.21,222.79l.12.76c-.24.05-.46.08-.65.08-.31,0-.55-.05-.72-.15-.17-.1-.29-.23-.36-.39-.07-.16-.1-.5-.1-1.01v-2.91h-.63v-.67h.63v-1.25l.85-.51v1.76h.86v.67h-.86v2.95c0,.24.01.4.04.47s.08.12.15.17c.07.04.17.06.29.06.1,0,.22-.01.38-.03Z"/>
    <path class="cls-14" d="M485.5,221.93l.88.11c-.14.52-.4.92-.78,1.2-.38.29-.86.43-1.45.43-.74,0-1.32-.23-1.76-.68-.43-.45-.65-1.09-.65-1.91s.22-1.51.66-1.98,1-.7,1.7-.7,1.23.23,1.66.69.64,1.11.64,1.94c0,.05,0,.13,0,.23h-3.77c.03.55.19.98.47,1.27s.63.44,1.06.44c.31,0,.58-.08.8-.25s.4-.43.53-.79ZM482.69,220.54h2.82c-.04-.42-.15-.74-.32-.96-.27-.33-.63-.49-1.06-.49-.39,0-.72.13-.99.39-.27.26-.42.62-.44,1.06Z"/>
    <path class="cls-14" d="M487.45,223.56v-5.05h.77v.77c.2-.36.38-.59.54-.71.17-.11.35-.17.55-.17.29,0,.58.09.88.28l-.29.79c-.21-.12-.42-.19-.63-.19-.19,0-.36.06-.5.17-.15.11-.25.27-.32.47-.09.3-.14.64-.14,1v2.64h-.86Z"/>
    <path class="cls-14" d="M490.71,217.57v-.98h.86v.98h-.86ZM490.71,223.56v-5.05h.86v5.05h-.86Z"/>
    <path class="cls-14" d="M496.16,222.93c-.32.27-.62.46-.92.57-.29.11-.61.17-.94.17-.55,0-.98-.14-1.28-.41s-.45-.62-.45-1.04c0-.25.06-.47.17-.68.11-.2.26-.37.44-.49.18-.12.39-.22.62-.28.17-.04.42-.09.76-.13.69-.08,1.2-.18,1.53-.29,0-.12,0-.19,0-.22,0-.35-.08-.59-.24-.74-.22-.19-.54-.29-.97-.29-.4,0-.7.07-.89.21s-.33.39-.43.75l-.84-.11c.08-.36.2-.65.38-.87.17-.22.43-.39.76-.51.33-.12.71-.18,1.15-.18s.78.05,1.05.15c.27.1.47.23.59.38.13.15.22.35.27.58.03.15.04.41.04.79v1.14c0,.8.02,1.3.05,1.51.04.21.11.41.22.61h-.89c-.09-.18-.15-.39-.17-.62ZM496.09,221.02c-.31.13-.78.23-1.4.32-.35.05-.6.11-.75.17-.15.06-.26.16-.34.28s-.12.26-.12.41c0,.23.09.42.26.57s.42.23.76.23.62-.07.88-.22c.26-.14.45-.34.57-.59.09-.19.14-.48.14-.86v-.31Z"/>
    <path class="cls-14" d="M498.27,223.56v-6.97h.86v6.97h-.86Z"/>
    <path class="cls-14" d="M502.81,222.05l.85-.13c.05.34.18.6.4.78s.52.27.91.27.68-.08.88-.24c.19-.16.29-.35.29-.56,0-.19-.08-.35-.25-.46-.12-.08-.41-.17-.88-.29-.63-.16-1.06-.3-1.31-.41s-.43-.28-.55-.48c-.12-.2-.19-.43-.19-.68,0-.23.05-.43.15-.63.1-.19.24-.35.42-.48.13-.1.31-.18.54-.25.23-.07.48-.1.74-.1.4,0,.74.06,1.04.17.3.11.52.27.66.46s.24.46.29.78l-.84.11c-.04-.26-.15-.46-.33-.61-.18-.15-.44-.22-.77-.22-.39,0-.67.06-.84.19-.17.13-.25.28-.25.46,0,.11.04.21.1.3.07.09.18.17.33.23.09.03.34.1.76.22.61.16,1.03.29,1.27.4.24.1.43.25.56.45.14.2.21.44.21.73s-.08.55-.25.81c-.17.25-.41.45-.72.58-.31.14-.67.21-1.07.21-.66,0-1.16-.14-1.5-.41-.34-.27-.56-.68-.66-1.21Z"/>
    <path class="cls-14" d="M511.48,221.93l.88.11c-.14.52-.4.92-.78,1.2-.38.29-.86.43-1.45.43-.74,0-1.32-.23-1.76-.68-.43-.45-.65-1.09-.65-1.91s.22-1.51.66-1.98,1-.7,1.7-.7,1.23.23,1.66.69.64,1.11.64,1.94c0,.05,0,.13,0,.23h-3.77c.03.55.19.98.47,1.27s.63.44,1.06.44c.31,0,.58-.08.8-.25s.4-.43.53-.79ZM508.67,220.54h2.82c-.04-.42-.15-.74-.32-.96-.27-.33-.63-.49-1.06-.49-.39,0-.72.13-.99.39-.27.26-.42.62-.44,1.06Z"/>
    <path class="cls-14" d="M513.42,223.56v-6.97h.86v6.97h-.86Z"/>
    <path class="cls-14" d="M519.06,221.93l.88.11c-.14.52-.4.92-.78,1.2-.38.29-.86.43-1.45.43-.74,0-1.32-.23-1.76-.68-.43-.45-.65-1.09-.65-1.91s.22-1.51.66-1.98,1-.7,1.7-.7,1.23.23,1.66.69.64,1.11.64,1.94c0,.05,0,.13,0,.23h-3.77c.03.55.19.98.47,1.27s.63.44,1.06.44c.31,0,.58-.08.8-.25s.4-.43.53-.79ZM516.25,220.54h2.82c-.04-.42-.15-.74-.32-.96-.27-.33-.63-.49-1.06-.49-.39,0-.72.13-.99.39-.27.26-.42.62-.44,1.06Z"/>
    <path class="cls-14" d="M524.32,221.71l.84.11c-.09.58-.33,1.03-.71,1.36-.38.33-.84.49-1.4.49-.69,0-1.25-.23-1.67-.68s-.63-1.1-.63-1.94c0-.55.09-1.02.27-1.43.18-.41.46-.72.83-.92s.77-.31,1.21-.31c.55,0,1,.14,1.35.42s.57.67.67,1.18l-.83.13c-.08-.34-.22-.59-.42-.77s-.44-.26-.73-.26c-.43,0-.78.15-1.05.46s-.4.8-.4,1.47.13,1.17.39,1.48c.26.31.6.46,1.02.46.34,0,.62-.1.84-.31.22-.21.37-.52.43-.95Z"/>
    <path class="cls-14" d="M527.76,222.79l.12.76c-.24.05-.46.08-.65.08-.31,0-.55-.05-.72-.15-.17-.1-.29-.23-.36-.39-.07-.16-.1-.5-.1-1.01v-2.91h-.63v-.67h.63v-1.25l.85-.51v1.76h.86v.67h-.86v2.95c0,.24.01.4.04.47s.08.12.15.17c.07.04.17.06.29.06.1,0,.22-.01.38-.03Z"/>
    <path class="cls-14" d="M528.6,217.57v-.98h.86v.98h-.86ZM528.6,223.56v-5.05h.86v5.05h-.86Z"/>
    <path class="cls-14" d="M530.44,221.03c0-.94.26-1.63.78-2.08.43-.37.96-.56,1.59-.56.69,0,1.26.23,1.7.68.44.46.66,1.08.66,1.89,0,.65-.1,1.16-.29,1.53-.2.37-.48.66-.85.87s-.78.31-1.22.31c-.71,0-1.28-.23-1.71-.68-.44-.45-.65-1.11-.65-1.96ZM531.32,221.03c0,.65.14,1.13.42,1.45s.64.48,1.07.48.78-.16,1.06-.48.42-.82.42-1.48c0-.62-.14-1.1-.43-1.42-.28-.32-.64-.48-1.06-.48s-.78.16-1.07.48c-.28.32-.42.8-.42,1.45Z"/>
    <path class="cls-14" d="M536.17,223.56v-5.05h.77v.72c.37-.55.91-.83,1.61-.83.3,0,.58.05.84.16.26.11.45.25.57.43.13.18.22.39.27.63.03.16.05.44.05.83v3.1h-.86v-3.07c0-.35-.03-.61-.1-.78s-.18-.31-.35-.41-.37-.15-.6-.15c-.36,0-.68.12-.94.35s-.4.67-.4,1.32v2.76h-.86Z"/>
  </g>
  <g>
    <path class="cls-14" d="M471.57,284.97v-5.05h.77v.71c.16-.25.37-.45.63-.6.26-.15.56-.23.9-.23.37,0,.68.08.92.23.24.16.41.37.51.65.4-.59.92-.88,1.56-.88.5,0,.89.14,1.16.42s.4.7.4,1.28v3.47h-.85v-3.18c0-.34-.03-.59-.08-.74-.05-.15-.16-.27-.3-.36-.15-.09-.32-.14-.51-.14-.35,0-.65.12-.88.35-.24.24-.35.61-.35,1.13v2.93h-.86v-3.28c0-.38-.07-.67-.21-.86-.14-.19-.37-.29-.69-.29-.24,0-.46.06-.67.19-.2.13-.35.31-.44.56s-.14.6-.14,1.06v2.62h-.86Z"/>
    <path class="cls-14" d="M479.36,282.44c0-.94.26-1.63.78-2.08.43-.37.96-.56,1.59-.56.69,0,1.26.23,1.7.68.44.46.66,1.08.66,1.89,0,.65-.1,1.16-.29,1.53-.2.37-.48.66-.85.87s-.78.31-1.22.31c-.71,0-1.28-.23-1.71-.68-.44-.45-.65-1.11-.65-1.96ZM480.24,282.44c0,.65.14,1.13.42,1.45s.64.48,1.07.48.78-.16,1.06-.48.42-.82.42-1.48c0-.62-.14-1.1-.43-1.42-.28-.32-.64-.48-1.06-.48s-.78.16-1.07.48c-.28.32-.42.8-.42,1.45Z"/>
    <path class="cls-14" d="M486.97,284.2l.12.76c-.24.05-.46.08-.65.08-.31,0-.55-.05-.72-.15-.17-.1-.29-.23-.36-.39-.07-.16-.1-.5-.1-1.01v-2.91h-.63v-.67h.63v-1.25l.85-.51v1.76h.86v.67h-.86v2.95c0,.24.01.4.04.47s.08.12.15.17c.07.04.17.06.29.06.1,0,.22-.01.38-.03Z"/>
    <path class="cls-14" d="M487.49,282.44c0-.94.26-1.63.78-2.08.43-.37.96-.56,1.59-.56.69,0,1.26.23,1.7.68.44.46.66,1.08.66,1.89,0,.65-.1,1.16-.29,1.53-.2.37-.48.66-.85.87s-.78.31-1.22.31c-.71,0-1.28-.23-1.71-.68-.44-.45-.65-1.11-.65-1.96ZM488.37,282.44c0,.65.14,1.13.42,1.45s.64.48,1.07.48.78-.16,1.06-.48.42-.82.42-1.48c0-.62-.14-1.1-.43-1.42-.28-.32-.64-.48-1.06-.48s-.78.16-1.07.48c-.28.32-.42.8-.42,1.45Z"/>
    <path class="cls-14" d="M493.21,284.97v-5.05h.77v.77c.2-.36.38-.59.54-.71.17-.11.35-.17.55-.17.29,0,.58.09.88.28l-.29.79c-.21-.12-.42-.19-.63-.19-.19,0-.36.06-.5.17-.15.11-.25.27-.32.47-.09.3-.14.64-.14,1v2.64h-.86Z"/>
    <path class="cls-14" d="M498.83,283.46l.85-.13c.05.34.18.6.4.78s.52.27.91.27.68-.08.88-.24c.19-.16.29-.35.29-.56,0-.19-.08-.35-.25-.46-.12-.08-.41-.17-.88-.29-.63-.16-1.06-.3-1.31-.41s-.43-.28-.55-.48c-.12-.2-.19-.43-.19-.68,0-.23.05-.43.15-.63.1-.19.24-.35.42-.48.13-.1.31-.18.54-.25.23-.07.48-.1.74-.1.4,0,.74.06,1.04.17.3.11.52.27.66.46s.24.46.29.78l-.84.11c-.04-.26-.15-.46-.33-.61-.18-.15-.44-.22-.77-.22-.39,0-.67.06-.84.19-.17.13-.25.28-.25.46,0,.11.04.21.1.3.07.09.18.17.33.23.09.03.34.1.76.22.61.16,1.03.29,1.27.4.24.1.43.25.56.45.14.2.21.44.21.73s-.08.55-.25.81c-.17.25-.41.45-.72.58-.31.14-.67.21-1.07.21-.66,0-1.16-.14-1.5-.41-.34-.27-.56-.68-.66-1.21Z"/>
    <path class="cls-14" d="M507.49,283.34l.88.11c-.14.52-.4.92-.78,1.2-.38.29-.86.43-1.45.43-.74,0-1.32-.23-1.76-.68-.43-.45-.65-1.09-.65-1.91s.22-1.51.66-1.98,1-.7,1.7-.7,1.23.23,1.66.69.64,1.11.64,1.94c0,.05,0,.13,0,.23h-3.77c.03.55.19.98.47,1.27s.63.44,1.06.44c.31,0,.58-.08.8-.25s.4-.43.53-.79ZM504.69,281.96h2.82c-.04-.42-.15-.74-.32-.96-.27-.33-.63-.49-1.06-.49-.39,0-.72.13-.99.39-.27.26-.42.62-.44,1.06Z"/>
    <path class="cls-14" d="M509.44,284.97v-6.97h.86v6.97h-.86Z"/>
    <path class="cls-14" d="M515.07,283.34l.88.11c-.14.52-.4.92-.78,1.2-.38.29-.86.43-1.45.43-.74,0-1.32-.23-1.76-.68-.43-.45-.65-1.09-.65-1.91s.22-1.51.66-1.98,1-.7,1.7-.7,1.23.23,1.66.69.64,1.11.64,1.94c0,.05,0,.13,0,.23h-3.77c.03.55.19.98.47,1.27s.63.44,1.06.44c.31,0,.58-.08.8-.25s.4-.43.53-.79ZM512.26,281.96h2.82c-.04-.42-.15-.74-.32-.96-.27-.33-.63-.49-1.06-.49-.39,0-.72.13-.99.39-.27.26-.42.62-.44,1.06Z"/>
    <path class="cls-14" d="M520.33,283.12l.84.11c-.09.58-.33,1.03-.71,1.36-.38.33-.84.49-1.4.49-.69,0-1.25-.23-1.67-.68s-.63-1.1-.63-1.94c0-.55.09-1.02.27-1.43.18-.41.46-.72.83-.92s.77-.31,1.21-.31c.55,0,1,.14,1.35.42s.57.67.67,1.18l-.83.13c-.08-.34-.22-.59-.42-.77s-.44-.26-.73-.26c-.43,0-.78.15-1.05.46s-.4.8-.4,1.47.13,1.17.39,1.48c.26.31.6.46,1.02.46.34,0,.62-.1.84-.31.22-.21.37-.52.43-.95Z"/>
    <path class="cls-14" d="M523.77,284.2l.12.76c-.24.05-.46.08-.65.08-.31,0-.55-.05-.72-.15-.17-.1-.29-.23-.36-.39-.07-.16-.1-.5-.1-1.01v-2.91h-.63v-.67h.63v-1.25l.85-.51v1.76h.86v.67h-.86v2.95c0,.24.01.4.04.47s.08.12.15.17c.07.04.17.06.29.06.1,0,.22-.01.38-.03Z"/>
    <path class="cls-14" d="M524.61,278.98v-.98h.86v.98h-.86ZM524.61,284.97v-5.05h.86v5.05h-.86Z"/>
    <path class="cls-14" d="M526.45,282.44c0-.94.26-1.63.78-2.08.43-.37.96-.56,1.59-.56.69,0,1.26.23,1.7.68.44.46.66,1.08.66,1.89,0,.65-.1,1.16-.29,1.53-.2.37-.48.66-.85.87s-.78.31-1.22.31c-.71,0-1.28-.23-1.71-.68-.44-.45-.65-1.11-.65-1.96ZM527.33,282.44c0,.65.14,1.13.42,1.45s.64.48,1.07.48.78-.16,1.06-.48.42-.82.42-1.48c0-.62-.14-1.1-.43-1.42-.28-.32-.64-.48-1.06-.48s-.78.16-1.07.48c-.28.32-.42.8-.42,1.45Z"/>
    <path class="cls-14" d="M532.19,284.97v-5.05h.77v.72c.37-.55.91-.83,1.61-.83.3,0,.58.05.84.16.26.11.45.25.57.43.13.18.22.39.27.63.03.16.05.44.05.83v3.1h-.86v-3.07c0-.35-.03-.61-.1-.78s-.18-.31-.35-.41-.37-.15-.6-.15c-.36,0-.68.12-.94.35s-.4.67-.4,1.32v2.76h-.86Z"/>
  </g>
  <g>
    <path class="cls-14" d="M349.31,219.92l.83.12c.03.26.13.44.29.56.21.16.5.24.87.24.4,0,.7-.08.92-.24.21-.16.36-.38.44-.67.04-.17.06-.54.06-1.1-.37.44-.84.66-1.4.66-.69,0-1.23-.25-1.61-.75-.38-.5-.57-1.1-.57-1.8,0-.48.09-.93.26-1.33.17-.41.43-.72.76-.94.33-.22.72-.33,1.17-.33.6,0,1.09.24,1.47.72v-.61h.79v4.37c0,.79-.08,1.34-.24,1.67s-.41.59-.76.78c-.35.19-.77.29-1.28.29-.6,0-1.09-.14-1.46-.41s-.55-.68-.54-1.22ZM350.01,216.88c0,.66.13,1.15.39,1.45.26.3.59.46.99.46s.72-.15.99-.45.4-.78.4-1.42-.14-1.08-.41-1.4-.6-.47-.99-.47-.7.15-.97.46c-.27.31-.4.77-.4,1.38Z"/>
    <path class="cls-14" d="M354.87,219.5v-5.05h.77v.77c.2-.36.38-.59.54-.71.17-.11.35-.17.55-.17.29,0,.58.09.88.28l-.29.79c-.21-.12-.42-.19-.63-.19-.19,0-.36.06-.5.17-.15.11-.25.27-.32.47-.09.3-.14.64-.14,1v2.64h-.86Z"/>
    <path class="cls-14" d="M358.13,213.51v-.98h.86v.98h-.86ZM358.13,219.5v-5.05h.86v5.05h-.86Z"/>
    <path class="cls-14" d="M360.28,221.44v-6.99h.78v.66c.18-.26.39-.45.62-.58s.51-.19.84-.19c.43,0,.81.11,1.14.33.33.22.58.53.75.94s.25.85.25,1.33c0,.52-.09.98-.28,1.4s-.46.73-.81.95-.72.33-1.12.33c-.29,0-.54-.06-.77-.18-.23-.12-.41-.27-.56-.46v2.46h-.86ZM361.06,217c0,.65.13,1.13.39,1.44.26.31.58.47.96.47s.71-.16.98-.48c.27-.32.41-.82.41-1.5s-.13-1.13-.4-1.45c-.26-.32-.58-.48-.95-.48s-.69.17-.97.51-.42.84-.42,1.49Z"/>
    <path class="cls-14" d="M365.7,221.44v-6.99h.78v.66c.18-.26.39-.45.62-.58s.51-.19.84-.19c.43,0,.81.11,1.14.33.33.22.58.53.75.94s.25.85.25,1.33c0,.52-.09.98-.28,1.4s-.46.73-.81.95-.72.33-1.12.33c-.29,0-.54-.06-.77-.18-.23-.12-.41-.27-.56-.46v2.46h-.86ZM366.48,217c0,.65.13,1.13.39,1.44.26.31.58.47.96.47s.71-.16.98-.48c.27-.32.41-.82.41-1.5s-.13-1.13-.4-1.45c-.26-.32-.58-.48-.95-.48s-.69.17-.97.51-.42.84-.42,1.49Z"/>
    <path class="cls-14" d="M374.57,217.87l.88.11c-.14.52-.4.92-.78,1.2-.38.29-.86.43-1.45.43-.74,0-1.32-.23-1.76-.68-.43-.45-.65-1.09-.65-1.91s.22-1.51.66-1.98,1-.7,1.7-.7,1.23.23,1.66.69.64,1.11.64,1.94c0,.05,0,.13,0,.23h-3.77c.03.55.19.98.47,1.27s.63.44,1.06.44c.31,0,.58-.08.8-.25s.4-.43.53-.79ZM371.76,216.49h2.82c-.04-.42-.15-.74-.32-.96-.27-.33-.63-.49-1.06-.49-.39,0-.72.13-.99.39-.27.26-.42.62-.44,1.06Z"/>
    <path class="cls-14" d="M376.52,219.5v-5.05h.77v.77c.2-.36.38-.59.54-.71.17-.11.35-.17.55-.17.29,0,.58.09.88.28l-.29.79c-.21-.12-.42-.19-.63-.19-.19,0-.36.06-.5.17-.15.11-.25.27-.32.47-.09.3-.14.64-.14,1v2.64h-.86Z"/>
    <path class="cls-14" d="M385.76,219.5v-.64c-.32.5-.79.75-1.41.75-.4,0-.77-.11-1.11-.33s-.6-.53-.78-.93-.28-.85-.28-1.37.08-.96.25-1.37.42-.73.76-.94.71-.33,1.13-.33c.3,0,.58.06.81.19.24.13.43.3.58.5v-2.5h.85v6.97h-.79ZM383.05,216.98c0,.65.14,1.13.41,1.45.27.32.59.48.97.48s.69-.15.95-.46c.26-.31.39-.77.39-1.4,0-.69-.13-1.2-.4-1.52s-.59-.48-.98-.48-.7.16-.95.47c-.26.31-.38.8-.38,1.47Z"/>
    <path class="cls-14" d="M387.9,221.44v-6.99h.78v.66c.18-.26.39-.45.62-.58s.51-.19.84-.19c.43,0,.81.11,1.14.33.33.22.58.53.75.94s.25.85.25,1.33c0,.52-.09.98-.28,1.4s-.46.73-.81.95-.72.33-1.12.33c-.29,0-.54-.06-.77-.18-.23-.12-.41-.27-.56-.46v2.46h-.86ZM388.67,217c0,.65.13,1.13.39,1.44.26.31.58.47.96.47s.71-.16.98-.48c.27-.32.41-.82.41-1.5s-.13-1.13-.4-1.45c-.26-.32-.58-.48-.95-.48s-.69.17-.97.51-.42.84-.42,1.49Z"/>
  </g>
  <g>
    <path class="cls-14" d="M192.57,220.05v-5.05h.77v.77c.2-.36.38-.59.54-.71.17-.11.35-.17.55-.17.29,0,.58.09.88.28l-.29.79c-.21-.12-.42-.19-.63-.19-.19,0-.36.06-.5.17-.15.11-.25.27-.32.47-.09.3-.14.64-.14,1v2.64h-.86Z"/>
    <path class="cls-14" d="M195.5,217.53c0-.94.26-1.63.78-2.08.43-.37.96-.56,1.59-.56.69,0,1.26.23,1.7.68.44.46.66,1.08.66,1.89,0,.65-.1,1.16-.29,1.53-.2.37-.48.66-.85.87s-.78.31-1.22.31c-.71,0-1.28-.23-1.71-.68-.44-.45-.65-1.11-.65-1.96ZM196.38,217.53c0,.65.14,1.13.42,1.45s.64.48,1.07.48.78-.16,1.06-.48.42-.82.42-1.48c0-.62-.14-1.1-.43-1.42-.28-.32-.64-.48-1.06-.48s-.78.16-1.07.48c-.28.32-.42.8-.42,1.45Z"/>
    <path class="cls-14" d="M202.03,220.05h-.79v-6.97h.86v2.49c.36-.45.82-.68,1.38-.68.31,0,.6.06.88.19.28.12.51.3.68.53.18.23.32.5.42.82.1.32.15.66.15,1.03,0,.87-.21,1.53-.64,2.01-.43.47-.94.71-1.54.71s-1.06-.25-1.4-.75v.63ZM202.02,217.49c0,.61.08,1.04.25,1.31.27.44.63.66,1.09.66.37,0,.7-.16.97-.49.27-.32.41-.81.41-1.45s-.13-1.15-.39-1.46c-.26-.31-.58-.47-.95-.47s-.7.16-.97.49c-.27.33-.41.79-.41,1.41Z"/>
    <path class="cls-14" d="M206.34,217.53c0-.94.26-1.63.78-2.08.43-.37.96-.56,1.59-.56.69,0,1.26.23,1.7.68.44.46.66,1.08.66,1.89,0,.65-.1,1.16-.29,1.53-.2.37-.48.66-.85.87s-.78.31-1.22.31c-.71,0-1.28-.23-1.71-.68-.44-.45-.65-1.11-.65-1.96ZM207.22,217.53c0,.65.14,1.13.42,1.45s.64.48,1.07.48.78-.16,1.06-.48.42-.82.42-1.48c0-.62-.14-1.1-.43-1.42-.28-.32-.64-.48-1.06-.48s-.78.16-1.07.48c-.28.32-.42.8-.42,1.45Z"/>
    <path class="cls-14" d="M213.94,219.29l.12.76c-.24.05-.46.08-.65.08-.31,0-.55-.05-.72-.15-.17-.1-.29-.23-.36-.39-.07-.16-.1-.5-.1-1.01v-2.91h-.63v-.67h.63v-1.25l.85-.51v1.76h.86v.67h-.86v2.95c0,.24.01.4.04.47s.08.12.15.17c.07.04.17.06.29.06.1,0,.22-.01.38-.03Z"/>
    <path class="cls-14" d="M214.78,214.07v-.98h.86v.98h-.86ZM214.78,220.05v-5.05h.86v5.05h-.86Z"/>
    <path class="cls-14" d="M220.24,218.2l.84.11c-.09.58-.33,1.03-.71,1.36-.38.33-.84.49-1.4.49-.69,0-1.25-.23-1.67-.68s-.63-1.1-.63-1.94c0-.55.09-1.02.27-1.43.18-.41.46-.72.83-.92s.77-.31,1.21-.31c.55,0,1,.14,1.35.42s.57.67.67,1.18l-.83.13c-.08-.34-.22-.59-.42-.77s-.44-.26-.73-.26c-.43,0-.78.15-1.05.46s-.4.8-.4,1.47.13,1.17.39,1.48c.26.31.6.46,1.02.46.34,0,.62-.1.84-.31.22-.21.37-.52.43-.95Z"/>
    <path class="cls-14" d="M227.81,219.43c-.32.27-.62.46-.92.57-.29.11-.61.17-.94.17-.55,0-.98-.14-1.28-.41s-.45-.62-.45-1.04c0-.25.06-.47.17-.68.11-.2.26-.37.44-.49.18-.12.39-.22.62-.28.17-.04.42-.09.76-.13.69-.08,1.2-.18,1.53-.29,0-.12,0-.19,0-.22,0-.35-.08-.59-.24-.74-.22-.19-.54-.29-.97-.29-.4,0-.7.07-.89.21s-.33.39-.43.75l-.84-.11c.08-.36.2-.65.38-.87.17-.22.43-.39.76-.51.33-.12.71-.18,1.15-.18s.78.05,1.05.15c.27.1.47.23.59.38.13.15.22.35.27.58.03.15.04.41.04.79v1.14c0,.8.02,1.3.05,1.51.04.21.11.41.22.61h-.89c-.09-.18-.15-.39-.17-.62ZM227.74,217.52c-.31.13-.78.23-1.4.32-.35.05-.6.11-.75.17-.15.06-.26.16-.34.28s-.12.26-.12.41c0,.23.09.42.26.57s.42.23.76.23.62-.07.88-.22c.26-.14.45-.34.57-.59.09-.19.14-.48.14-.86v-.31Z"/>
    <path class="cls-14" d="M229.92,220.05v-5.05h.77v.77c.2-.36.38-.59.54-.71.17-.11.35-.17.55-.17.29,0,.58.09.88.28l-.29.79c-.21-.12-.42-.19-.63-.19-.19,0-.36.06-.5.17-.15.11-.25.27-.32.47-.09.3-.14.64-.14,1v2.64h-.86Z"/>
    <path class="cls-14" d="M233.17,220.05v-5.05h.77v.71c.16-.25.37-.45.63-.6.26-.15.56-.23.9-.23.37,0,.68.08.92.23.24.16.41.37.51.65.4-.59.92-.88,1.56-.88.5,0,.89.14,1.16.42s.4.7.4,1.28v3.47h-.85v-3.18c0-.34-.03-.59-.08-.74-.05-.15-.16-.27-.3-.36-.15-.09-.32-.14-.51-.14-.35,0-.65.12-.88.35-.24.24-.35.61-.35,1.13v2.93h-.86v-3.28c0-.38-.07-.67-.21-.86-.14-.19-.37-.29-.69-.29-.24,0-.46.06-.67.19-.2.13-.35.31-.44.56s-.14.6-.14,1.06v2.62h-.86Z"/>
    <path class="cls-14" d="M243.65,218.55l.85-.13c.05.34.18.6.4.78s.52.27.91.27.68-.08.88-.24c.19-.16.29-.35.29-.56,0-.19-.08-.35-.25-.46-.12-.08-.41-.17-.88-.29-.63-.16-1.06-.3-1.31-.41s-.43-.28-.55-.48c-.12-.2-.19-.43-.19-.68,0-.23.05-.43.15-.63.1-.19.24-.35.42-.48.13-.1.31-.18.54-.25.23-.07.48-.1.74-.1.4,0,.74.06,1.04.17.3.11.52.27.66.46s.24.46.29.78l-.84.11c-.04-.26-.15-.46-.33-.61-.18-.15-.44-.22-.77-.22-.39,0-.67.06-.84.19-.17.13-.25.28-.25.46,0,.11.04.21.1.3.07.09.18.17.33.23.09.03.34.1.76.22.61.16,1.03.29,1.27.4.24.1.43.25.56.45.14.2.21.44.21.73s-.08.55-.25.81c-.17.25-.41.45-.72.58-.31.14-.67.21-1.07.21-.66,0-1.16-.14-1.5-.41-.34-.27-.56-.68-.66-1.21Z"/>
    <path class="cls-14" d="M252.32,218.43l.88.11c-.14.52-.4.92-.78,1.2-.38.29-.86.43-1.45.43-.74,0-1.32-.23-1.76-.68-.43-.45-.65-1.09-.65-1.91s.22-1.51.66-1.98,1-.7,1.7-.7,1.23.23,1.66.69.64,1.11.64,1.94c0,.05,0,.13,0,.23h-3.77c.03.55.19.98.47,1.27s.63.44,1.06.44c.31,0,.58-.08.8-.25s.4-.43.53-.79ZM249.51,217.04h2.82c-.04-.42-.15-.74-.32-.96-.27-.33-.63-.49-1.06-.49-.39,0-.72.13-.99.39-.27.26-.42.62-.44,1.06Z"/>
    <path class="cls-14" d="M254.26,220.05v-6.97h.86v6.97h-.86Z"/>
    <path class="cls-14" d="M259.9,218.43l.88.11c-.14.52-.4.92-.78,1.2-.38.29-.86.43-1.45.43-.74,0-1.32-.23-1.76-.68-.43-.45-.65-1.09-.65-1.91s.22-1.51.66-1.98,1-.7,1.7-.7,1.23.23,1.66.69.64,1.11.64,1.94c0,.05,0,.13,0,.23h-3.77c.03.55.19.98.47,1.27s.63.44,1.06.44c.31,0,.58-.08.8-.25s.4-.43.53-.79ZM257.09,217.04h2.82c-.04-.42-.15-.74-.32-.96-.27-.33-.63-.49-1.06-.49-.39,0-.72.13-.99.39-.27.26-.42.62-.44,1.06Z"/>
    <path class="cls-14" d="M265.15,218.2l.84.11c-.09.58-.33,1.03-.71,1.36-.38.33-.84.49-1.4.49-.69,0-1.25-.23-1.67-.68s-.63-1.1-.63-1.94c0-.55.09-1.02.27-1.43.18-.41.46-.72.83-.92s.77-.31,1.21-.31c.55,0,1,.14,1.35.42s.57.67.67,1.18l-.83.13c-.08-.34-.22-.59-.42-.77s-.44-.26-.73-.26c-.43,0-.78.15-1.05.46s-.4.8-.4,1.47.13,1.17.39,1.48c.26.31.6.46,1.02.46.34,0,.62-.1.84-.31.22-.21.37-.52.43-.95Z"/>
    <path class="cls-14" d="M268.6,219.29l.12.76c-.24.05-.46.08-.65.08-.31,0-.55-.05-.72-.15-.17-.1-.29-.23-.36-.39-.07-.16-.1-.5-.1-1.01v-2.91h-.63v-.67h.63v-1.25l.85-.51v1.76h.86v.67h-.86v2.95c0,.24.01.4.04.47s.08.12.15.17c.07.04.17.06.29.06.1,0,.22-.01.38-.03Z"/>
    <path class="cls-14" d="M269.44,214.07v-.98h.86v.98h-.86ZM269.44,220.05v-5.05h.86v5.05h-.86Z"/>
    <path class="cls-14" d="M271.28,217.53c0-.94.26-1.63.78-2.08.43-.37.96-.56,1.59-.56.69,0,1.26.23,1.7.68.44.46.66,1.08.66,1.89,0,.65-.1,1.16-.29,1.53-.2.37-.48.66-.85.87s-.78.31-1.22.31c-.71,0-1.28-.23-1.71-.68-.44-.45-.65-1.11-.65-1.96ZM272.16,217.53c0,.65.14,1.13.42,1.45s.64.48,1.07.48.78-.16,1.06-.48.42-.82.42-1.48c0-.62-.14-1.1-.43-1.42-.28-.32-.64-.48-1.06-.48s-.78.16-1.07.48c-.28.32-.42.8-.42,1.45Z"/>
    <path class="cls-14" d="M277.01,220.05v-5.05h.77v.72c.37-.55.91-.83,1.61-.83.3,0,.58.05.84.16.26.11.45.25.57.43.13.18.22.39.27.63.03.16.05.44.05.83v3.1h-.86v-3.07c0-.35-.03-.61-.1-.78s-.18-.31-.35-.41-.37-.15-.6-.15c-.36,0-.68.12-.94.35s-.4.67-.4,1.32v2.76h-.86Z"/>
  </g>
  <line class="cls-4" x1="205.63" y1="265.07" x2="184.83" y2="265.07"/>
  <line class="cls-4" x1="205.63" y1="244.47" x2="89.82" y2="244.47"/>
  <rect class="cls-2" x="153.37" y="258.25" width="13.64" height="13.64"/>
  <line class="cls-10" x1="184.83" y1="265.07" x2="168.16" y2="265.07"/>
  <line class="cls-4" x1="152.64" y1="265.07" x2="90.85" y2="265.07"/>
  <g>
    <path class="cls-13" d="M92.13,262.11v-4.8h3.47v.57h-2.84v1.47h2.66v.56h-2.66v1.64h2.95v.57h-3.58Z"/>
    <path class="cls-13" d="M96.12,262.11l1.27-1.81-1.18-1.67h.74l.53.82c.1.16.18.29.24.39.1-.14.18-.27.27-.38l.59-.82h.7l-1.2,1.64,1.29,1.84h-.72l-.71-1.08-.19-.29-.91,1.37h-.71Z"/>
    <path class="cls-13" d="M101.16,261.58l.08.52c-.17.03-.31.05-.45.05-.21,0-.38-.03-.5-.1-.12-.07-.2-.16-.25-.27-.05-.11-.07-.34-.07-.7v-2h-.43v-.46h.43v-.86l.59-.35v1.22h.59v.46h-.59v2.04c0,.17.01.28.03.32.02.05.05.09.1.11s.11.04.2.04c.07,0,.15,0,.26-.02Z"/>
    <path class="cls-13" d="M101.73,262.11v-3.48h.53v.53c.14-.25.26-.41.38-.49.12-.08.24-.12.38-.12.2,0,.4.06.61.19l-.2.55c-.14-.08-.29-.13-.43-.13-.13,0-.25.04-.35.12s-.18.19-.22.32c-.07.21-.1.44-.1.69v1.82h-.59Z"/>
    <path class="cls-13" d="M106.24,261.68c-.22.19-.43.32-.63.39-.2.08-.42.11-.65.11-.38,0-.68-.09-.88-.28-.21-.19-.31-.43-.31-.72,0-.17.04-.33.12-.47.08-.14.18-.25.31-.34.12-.09.27-.15.42-.19.12-.03.29-.06.52-.09.48-.06.83-.12,1.05-.2,0-.08,0-.13,0-.15,0-.24-.06-.41-.17-.51-.15-.13-.38-.2-.67-.2-.28,0-.48.05-.62.15-.13.1-.23.27-.29.52l-.58-.08c.05-.25.14-.45.26-.6s.29-.27.52-.35.49-.12.79-.12.54.04.72.1c.19.07.32.16.41.26.09.11.15.24.18.4.02.1.03.28.03.54v.79c0,.55.01.9.04,1.04.02.15.07.28.15.42h-.62c-.06-.12-.1-.27-.12-.43ZM106.19,260.36c-.21.09-.54.16-.96.22-.24.04-.41.07-.51.12-.1.04-.18.11-.23.19-.05.08-.08.18-.08.28,0,.16.06.29.18.39.12.1.29.16.52.16s.43-.05.61-.15c.18-.1.31-.24.39-.41.06-.13.09-.33.09-.59v-.22Z"/>
    <path class="cls-13" d="M109.64,262.11v-4.8h1.81c.32,0,.56.02.73.05.24.04.43.11.59.22.16.11.29.27.38.46.1.2.15.42.15.66,0,.41-.13.75-.39,1.04-.26.28-.73.42-1.41.42h-1.23v1.95h-.64ZM110.28,259.59h1.24c.41,0,.7-.08.88-.23s.26-.37.26-.65c0-.2-.05-.37-.15-.52s-.24-.24-.4-.28c-.11-.03-.3-.04-.59-.04h-1.23v1.72Z"/>
    <path class="cls-13" d="M116.32,261.68c-.22.19-.43.32-.63.39-.2.08-.42.11-.65.11-.38,0-.68-.09-.88-.28-.21-.19-.31-.43-.31-.72,0-.17.04-.33.12-.47.08-.14.18-.25.31-.34.12-.09.27-.15.42-.19.12-.03.29-.06.52-.09.48-.06.83-.12,1.05-.2,0-.08,0-.13,0-.15,0-.24-.06-.41-.17-.51-.15-.13-.38-.2-.67-.2-.28,0-.48.05-.62.15-.13.1-.23.27-.29.52l-.58-.08c.05-.25.14-.45.26-.6s.29-.27.52-.35.49-.12.79-.12.54.04.72.1c.19.07.32.16.41.26.09.11.15.24.18.4.02.1.03.28.03.54v.79c0,.55.01.9.04,1.04.02.15.07.28.15.42h-.62c-.06-.12-.1-.27-.12-.43ZM116.27,260.36c-.21.09-.54.16-.96.22-.24.04-.41.07-.51.12-.1.04-.18.11-.23.19-.05.08-.08.18-.08.28,0,.16.06.29.18.39.12.1.29.16.52.16s.43-.05.61-.15c.18-.1.31-.24.39-.41.06-.13.09-.33.09-.59v-.22Z"/>
    <path class="cls-13" d="M117.75,263.45l-.07-.55c.13.03.24.05.34.05.13,0,.24-.02.31-.07.08-.04.14-.1.19-.18.04-.06.1-.21.18-.44.01-.03.03-.08.05-.14l-1.32-3.49h.64l.72,2.02c.09.26.18.52.25.81.07-.27.15-.54.24-.79l.74-2.03h.59l-1.32,3.54c-.14.38-.25.65-.33.79-.1.19-.22.34-.36.43s-.3.14-.49.14c-.11,0-.24-.02-.38-.07Z"/>
    <path class="cls-13" d="M121.12,262.11v-4.8h.59v4.8h-.59Z"/>
    <path class="cls-13" d="M122.41,260.37c0-.64.18-1.12.54-1.43.3-.26.66-.39,1.09-.39.48,0,.87.16,1.17.47s.46.75.46,1.3c0,.45-.07.8-.2,1.06-.13.26-.33.46-.59.6s-.54.21-.84.21c-.49,0-.88-.16-1.18-.47-.3-.31-.45-.76-.45-1.35ZM123.01,260.37c0,.45.1.78.29,1,.19.22.44.33.73.33s.54-.11.73-.33c.19-.22.29-.56.29-1.02,0-.43-.1-.76-.29-.98-.2-.22-.44-.33-.73-.33s-.54.11-.73.33-.29.55-.29,1Z"/>
    <path class="cls-13" d="M128.63,261.68c-.22.19-.43.32-.63.39-.2.08-.42.11-.65.11-.38,0-.68-.09-.88-.28-.21-.19-.31-.43-.31-.72,0-.17.04-.33.12-.47.08-.14.18-.25.31-.34.12-.09.27-.15.42-.19.12-.03.29-.06.52-.09.48-.06.83-.12,1.05-.2,0-.08,0-.13,0-.15,0-.24-.06-.41-.17-.51-.15-.13-.38-.2-.67-.2-.28,0-.48.05-.62.15-.13.1-.23.27-.29.52l-.58-.08c.05-.25.14-.45.26-.6s.29-.27.52-.35.49-.12.79-.12.54.04.72.1c.19.07.32.16.41.26.09.11.15.24.18.4.02.1.03.28.03.54v.79c0,.55.01.9.04,1.04.02.15.07.28.15.42h-.62c-.06-.12-.1-.27-.12-.43ZM128.58,260.36c-.21.09-.54.16-.96.22-.24.04-.41.07-.51.12-.1.04-.18.11-.23.19-.05.08-.08.18-.08.28,0,.16.06.29.18.39.12.1.29.16.52.16s.43-.05.61-.15c.18-.1.31-.24.39-.41.06-.13.09-.33.09-.59v-.22Z"/>
    <path class="cls-13" d="M132.35,262.11v-.44c-.22.35-.54.52-.97.52-.28,0-.53-.08-.77-.23s-.41-.37-.54-.64c-.13-.27-.19-.59-.19-.95s.06-.66.17-.95c.12-.28.29-.5.52-.65s.49-.23.78-.23c.21,0,.4.04.56.13.16.09.3.2.4.35v-1.72h.59v4.8h-.55ZM130.48,260.37c0,.45.09.78.28,1,.19.22.41.33.67.33s.48-.11.66-.32c.18-.21.27-.53.27-.97,0-.48-.09-.83-.28-1.05-.18-.22-.41-.33-.68-.33s-.48.11-.66.32c-.18.21-.26.55-.26,1.01Z"/>
  </g>
  <g>
    <path class="cls-13" d="M92.74,241.46l-1.27-4.8h.65l.73,3.15c.08.33.15.66.2.98.12-.51.19-.81.22-.89l.91-3.24h.77l.69,2.43c.17.6.3,1.17.37,1.7.06-.3.14-.65.24-1.05l.75-3.09h.64l-1.32,4.8h-.61l-1.01-3.66c-.08-.31-.14-.49-.15-.56-.05.22-.1.41-.14.56l-1.02,3.66h-.65Z"/>
    <path class="cls-13" d="M97.82,239.72c0-.64.18-1.12.54-1.43.3-.26.66-.39,1.09-.39.48,0,.87.16,1.17.47s.46.75.46,1.3c0,.45-.07.8-.2,1.06-.13.26-.33.46-.59.6s-.54.21-.84.21c-.49,0-.88-.16-1.18-.47-.3-.31-.45-.76-.45-1.35ZM98.42,239.72c0,.45.1.78.29,1,.19.22.44.33.73.33s.54-.11.73-.33c.19-.22.29-.56.29-1.02,0-.43-.1-.76-.29-.98-.2-.22-.44-.33-.73-.33s-.54.11-.73.33-.29.55-.29,1Z"/>
    <path class="cls-13" d="M101.76,241.46v-3.48h.53v.53c.14-.25.26-.41.38-.49.12-.08.24-.12.38-.12.2,0,.4.06.61.19l-.2.55c-.14-.08-.29-.13-.43-.13-.13,0-.25.04-.35.12s-.18.19-.22.32c-.07.21-.1.44-.1.69v1.82h-.59Z"/>
    <path class="cls-13" d="M104.01,241.46v-4.8h.59v2.74l1.4-1.42h.76l-1.33,1.29,1.47,2.19h-.73l-1.15-1.78-.42.4v1.38h-.59Z"/>
    <path class="cls-13" d="M107.12,240.42l.58-.09c.03.23.12.41.27.54s.36.19.63.19.47-.06.6-.17.2-.24.2-.39c0-.13-.06-.24-.17-.31-.08-.05-.28-.12-.6-.2-.43-.11-.73-.2-.9-.28-.17-.08-.29-.19-.38-.33-.09-.14-.13-.3-.13-.47,0-.16.04-.3.11-.43.07-.13.17-.24.29-.33.09-.07.22-.12.38-.17.16-.05.33-.07.51-.07.27,0,.51.04.72.12.21.08.36.19.46.32s.17.31.2.54l-.58.08c-.03-.18-.1-.32-.23-.42-.12-.1-.3-.15-.53-.15-.27,0-.46.04-.58.13-.12.09-.17.19-.17.31,0,.08.02.15.07.21.05.06.12.12.23.16.06.02.23.07.52.15.42.11.71.2.87.27.17.07.29.17.39.31.09.14.14.3.14.5s-.06.38-.17.56c-.11.17-.28.31-.5.4-.22.1-.46.14-.73.14-.45,0-.8-.09-1.03-.28s-.39-.47-.45-.84Z"/>
    <path class="cls-13" d="M110.72,242.8v-4.81h.54v.45c.13-.18.27-.31.43-.4s.35-.13.58-.13c.3,0,.56.08.79.23.23.15.4.37.51.65.12.28.17.58.17.92,0,.36-.06.68-.19.96s-.31.5-.56.66c-.24.15-.5.23-.77.23-.2,0-.37-.04-.53-.12s-.28-.19-.38-.31v1.69h-.59ZM111.25,239.74c0,.45.09.78.27.99.18.21.4.32.66.32s.49-.11.67-.33c.19-.22.28-.57.28-1.03s-.09-.78-.27-1c-.18-.22-.4-.33-.65-.33s-.47.12-.67.35-.29.58-.29,1.02Z"/>
    <path class="cls-13" d="M116.72,241.03c-.22.19-.43.32-.63.39-.2.08-.42.11-.65.11-.38,0-.68-.09-.88-.28-.21-.19-.31-.43-.31-.72,0-.17.04-.33.12-.47.08-.14.18-.25.31-.34.12-.09.27-.15.42-.19.12-.03.29-.06.52-.09.48-.06.83-.12,1.05-.2,0-.08,0-.13,0-.15,0-.24-.06-.41-.17-.51-.15-.13-.38-.2-.67-.2-.28,0-.48.05-.62.15-.13.1-.23.27-.29.52l-.58-.08c.05-.25.14-.45.26-.6s.29-.27.52-.35.49-.12.79-.12.54.04.72.1c.19.07.32.16.41.26.09.11.15.24.18.4.02.1.03.28.03.54v.79c0,.55.01.9.04,1.04.02.15.07.28.15.42h-.62c-.06-.12-.1-.27-.12-.43ZM116.67,239.72c-.21.09-.54.16-.96.22-.24.04-.41.07-.51.12-.1.04-.18.11-.23.19-.05.08-.08.18-.08.28,0,.16.06.29.18.39.12.1.29.16.52.16s.43-.05.61-.15c.18-.1.31-.24.39-.41.06-.13.09-.33.09-.59v-.22Z"/>
    <path class="cls-13" d="M120.45,240.19l.58.08c-.06.4-.23.71-.49.94-.26.23-.58.34-.96.34-.48,0-.86-.16-1.15-.47-.29-.31-.43-.76-.43-1.34,0-.38.06-.7.19-.99.12-.28.31-.49.57-.63s.53-.21.83-.21c.38,0,.69.1.93.29.24.19.39.46.46.81l-.57.09c-.05-.23-.15-.41-.29-.53-.14-.12-.31-.18-.5-.18-.3,0-.54.11-.72.32-.19.21-.28.55-.28,1.01s.09.81.27,1.02c.18.21.41.32.7.32.23,0,.42-.07.58-.21.15-.14.25-.36.29-.66Z"/>
    <path class="cls-13" d="M123.92,240.34l.61.08c-.1.36-.27.63-.53.83s-.59.29-1,.29c-.51,0-.91-.16-1.21-.47-.3-.31-.45-.75-.45-1.32s.15-1.04.45-1.36c.3-.32.69-.48,1.17-.48s.85.16,1.14.48c.29.32.44.76.44,1.34,0,.03,0,.09,0,.16h-2.6c.02.38.13.67.32.88.19.2.44.3.73.3.22,0,.4-.06.55-.17.15-.11.27-.29.36-.54ZM121.98,239.39h1.94c-.03-.29-.1-.51-.22-.66-.19-.23-.43-.34-.73-.34-.27,0-.5.09-.68.27-.18.18-.29.42-.31.73Z"/>
  </g>
  <polyline class="cls-7" points="318.34 244.47 290.61 244.47 290.61 165.91 91.38 165.91"/>
  <g>
    <path class="cls-13" d="M94.89,161.1v-.56h2.04s0,1.78,0,1.78c-.31.25-.63.44-.97.56s-.67.19-1.02.19c-.47,0-.9-.1-1.29-.3s-.68-.49-.87-.88c-.2-.38-.29-.81-.29-1.28s.1-.9.29-1.31.48-.71.84-.9.79-.29,1.27-.29c.35,0,.66.06.94.17.28.11.5.27.66.47.16.2.28.46.36.79l-.57.16c-.07-.24-.16-.44-.27-.58-.11-.14-.26-.25-.46-.34-.2-.08-.42-.13-.66-.13-.29,0-.54.04-.75.13s-.38.2-.51.35c-.13.14-.23.3-.3.48-.12.3-.18.62-.18.97,0,.43.07.79.22,1.07.15.29.36.5.64.64.28.14.58.21.9.21.28,0,.54-.05.81-.16.26-.11.46-.22.6-.34v-.89h-1.41Z"/>
    <path class="cls-13" d="M97.78,162.98v-3.48h.53v.53c.14-.25.26-.41.38-.49.12-.08.24-.12.38-.12.2,0,.4.06.61.19l-.2.55c-.14-.08-.29-.13-.43-.13-.13,0-.25.04-.35.12s-.18.19-.22.32c-.07.21-.1.44-.1.69v1.82h-.59Z"/>
    <path class="cls-13" d="M102.3,162.55c-.22.19-.43.32-.63.39-.2.08-.42.11-.65.11-.38,0-.68-.09-.88-.28-.21-.19-.31-.43-.31-.72,0-.17.04-.33.12-.47.08-.14.18-.25.31-.34.12-.09.27-.15.42-.19.12-.03.29-.06.52-.09.48-.06.83-.12,1.05-.2,0-.08,0-.13,0-.15,0-.24-.06-.41-.17-.51-.15-.13-.38-.2-.67-.2-.28,0-.48.05-.62.15-.13.1-.23.27-.29.52l-.58-.08c.05-.25.14-.45.26-.6s.29-.27.52-.35.49-.12.79-.12.54.04.72.1c.19.07.32.16.41.26.09.11.15.24.18.4.02.1.03.28.03.54v.79c0,.55.01.9.04,1.04.02.15.07.28.15.42h-.62c-.06-.12-.1-.27-.12-.43ZM102.25,161.23c-.21.09-.54.16-.96.22-.24.04-.41.07-.51.12-.1.04-.18.11-.23.19-.05.08-.08.18-.08.28,0,.16.06.29.18.39.12.1.29.16.52.16s.43-.05.61-.15c.18-.1.31-.24.39-.41.06-.13.09-.33.09-.59v-.22Z"/>
    <path class="cls-13" d="M103.52,161.94l.58-.09c.03.23.12.41.27.54s.36.19.63.19.47-.06.6-.17.2-.24.2-.39c0-.13-.06-.24-.17-.31-.08-.05-.28-.12-.6-.2-.43-.11-.73-.2-.9-.28-.17-.08-.29-.19-.38-.33-.09-.14-.13-.3-.13-.47,0-.16.04-.3.11-.43.07-.13.17-.24.29-.33.09-.07.22-.12.38-.17.16-.05.33-.07.51-.07.27,0,.51.04.72.12.21.08.36.19.46.32s.17.31.2.54l-.58.08c-.03-.18-.1-.32-.23-.42-.12-.1-.3-.15-.53-.15-.27,0-.46.04-.58.13-.12.09-.17.19-.17.31,0,.08.02.15.07.21.05.06.12.12.23.16.06.02.23.07.52.15.42.11.71.2.87.27.17.07.29.17.39.31.09.14.14.3.14.5s-.06.38-.17.56c-.11.17-.28.31-.5.4-.22.1-.46.14-.73.14-.45,0-.8-.09-1.03-.28s-.39-.47-.45-.84Z"/>
    <path class="cls-13" d="M107.11,164.32v-4.81h.54v.45c.13-.18.27-.31.43-.4s.35-.13.58-.13c.3,0,.56.08.79.23.23.15.4.37.51.65.12.28.17.58.17.92,0,.36-.06.68-.19.96s-.31.5-.56.66c-.24.15-.5.23-.77.23-.2,0-.37-.04-.53-.12s-.28-.19-.38-.31v1.69h-.59ZM107.65,161.26c0,.45.09.78.27.99.18.21.4.32.66.32s.49-.11.67-.33c.19-.22.28-.57.28-1.03s-.09-.78-.27-1c-.18-.22-.4-.33-.65-.33s-.47.12-.67.35-.29.58-.29,1.02Z"/>
    <path class="cls-13" d="M110.85,158.86v-.68h.59v.68h-.59ZM110.85,162.98v-3.48h.59v3.48h-.59Z"/>
    <path class="cls-13" d="M112.34,162.98v-3.48h.53v.5c.25-.38.62-.57,1.11-.57.21,0,.4.04.58.11.18.08.31.17.4.3.09.12.15.27.18.44.02.11.03.3.03.57v2.14h-.59v-2.12c0-.24-.02-.42-.07-.54s-.13-.21-.24-.29c-.12-.07-.25-.11-.41-.11-.25,0-.47.08-.65.24-.18.16-.27.46-.27.91v1.9h-.59Z"/>
    <path class="cls-13" d="M115.96,163.27l.57.08c.02.18.09.31.2.39.15.11.35.16.6.16.27,0,.48-.05.63-.16s.25-.26.3-.46c.03-.12.04-.37.04-.76-.26.3-.58.46-.96.46-.48,0-.85-.17-1.11-.52-.26-.35-.39-.76-.39-1.24,0-.33.06-.64.18-.92s.29-.5.52-.65c.23-.15.5-.23.8-.23.41,0,.75.17,1.02.5v-.42h.54v3.01c0,.54-.06.93-.17,1.15s-.29.4-.52.54c-.24.13-.53.2-.88.2-.42,0-.75-.09-1.01-.28-.26-.19-.38-.47-.37-.84ZM116.45,161.18c0,.46.09.79.27,1,.18.21.41.31.68.31s.5-.1.68-.31.28-.54.28-.98-.09-.75-.28-.96c-.19-.22-.42-.32-.68-.32s-.49.11-.67.32c-.18.21-.28.53-.28.95Z"/>
    <path class="cls-13" d="M120.84,162.98l1.84-4.8h.69l1.97,4.8h-.72l-.56-1.46h-2.01l-.53,1.46h-.67ZM122.23,161.01h1.63l-.5-1.33c-.15-.4-.27-.74-.34-1-.06.31-.15.61-.26.92l-.53,1.41Z"/>
    <path class="cls-13" d="M126.32,162.98h-.55v-4.8h.59v1.71c.25-.31.57-.47.95-.47.21,0,.42.04.61.13s.35.21.47.36.22.34.29.57.1.46.1.71c0,.6-.15,1.06-.44,1.38s-.65.49-1.06.49-.73-.17-.97-.51v.44ZM126.31,161.21c0,.42.06.72.17.9.19.3.44.46.75.46.26,0,.48-.11.67-.34.19-.22.28-.56.28-1s-.09-.79-.27-1.01c-.18-.22-.4-.32-.65-.32s-.48.11-.67.34c-.19.22-.28.55-.28.97Z"/>
    <path class="cls-13" d="M129.51,158.86v-.68h.59v.68h-.59ZM129.51,162.98v-3.48h.59v3.48h-.59Z"/>
    <path class="cls-13" d="M130.99,162.98v-4.8h.59v4.8h-.59Z"/>
    <path class="cls-13" d="M132.49,158.86v-.68h.59v.68h-.59ZM132.49,162.98v-3.48h.59v3.48h-.59Z"/>
    <path class="cls-13" d="M135.27,162.45l.08.52c-.17.03-.31.05-.45.05-.21,0-.38-.03-.5-.1-.12-.07-.2-.16-.25-.27-.05-.11-.07-.34-.07-.7v-2h-.43v-.46h.43v-.86l.59-.35v1.22h.59v.46h-.59v2.04c0,.17.01.28.03.32.02.05.05.09.1.11s.11.04.2.04c.07,0,.15,0,.26-.02Z"/>
    <path class="cls-13" d="M135.82,164.32l-.07-.55c.13.03.24.05.34.05.13,0,.24-.02.31-.07.08-.04.14-.1.19-.18.04-.06.1-.21.18-.44.01-.03.03-.08.05-.14l-1.32-3.49h.64l.72,2.02c.09.26.18.52.25.81.07-.27.15-.54.24-.79l.74-2.03h.59l-1.32,3.54c-.14.38-.25.65-.33.79-.1.19-.22.34-.36.43s-.3.14-.49.14c-.11,0-.24-.02-.38-.07Z"/>
  </g>
  <line class="cls-10" x1="420.83" y1="236.66" x2="444.53" y2="236.66"/>
  <line class="cls-10" x1="420.83" y1="245.85" x2="444.53" y2="245.85"/>
  <line class="cls-7" x1="444.53" y1="236.66" x2="468.59" y2="236.66"/>
  <line class="cls-7" x1="444.53" y1="245.85" x2="468.59" y2="245.85"/>
  <g>
    <path class="cls-11" d="M365.33,238.04v-4.8h1.81c.32,0,.56.02.73.05.24.04.43.11.59.22.16.11.29.27.38.46.1.2.15.42.15.66,0,.41-.13.75-.39,1.04-.26.28-.73.42-1.41.42h-1.23v1.95h-.64ZM365.97,235.52h1.24c.41,0,.7-.08.88-.23s.26-.37.26-.65c0-.2-.05-.37-.15-.52s-.24-.24-.4-.28c-.11-.03-.3-.04-.59-.04h-1.23v1.72Z"/>
    <path class="cls-11" d="M372.02,238.04v-.51c-.27.39-.64.59-1.1.59-.21,0-.4-.04-.58-.12-.18-.08-.31-.18-.4-.3-.09-.12-.15-.26-.18-.44-.02-.12-.04-.3-.04-.55v-2.16h.59v1.93c0,.31.01.52.04.62.04.15.12.28.24.37s.27.13.45.13.34-.05.5-.14c.16-.09.26-.21.33-.37s.1-.38.1-.68v-1.86h.59v3.48h-.53Z"/>
    <path class="cls-11" d="M373.46,238.04v-4.8h.59v4.8h-.59Z"/>
    <path class="cls-11" d="M374.95,238.04v-4.8h.59v4.8h-.59Z"/>
    <path class="cls-11" d="M378.83,236.92l.61.08c-.1.36-.27.63-.53.83s-.59.29-1,.29c-.51,0-.91-.16-1.21-.47-.3-.31-.45-.75-.45-1.32s.15-1.04.45-1.36c.3-.32.69-.48,1.17-.48s.85.16,1.14.48c.29.32.44.76.44,1.34,0,.03,0,.09,0,.16h-2.6c.02.38.13.67.32.88.19.2.44.3.73.3.22,0,.4-.06.55-.17.15-.11.27-.29.36-.54ZM376.9,235.97h1.94c-.03-.29-.1-.51-.22-.66-.19-.23-.43-.34-.73-.34-.27,0-.5.09-.68.27-.18.18-.29.42-.31.73Z"/>
    <path class="cls-11" d="M380.16,239.38l-.07-.55c.13.03.24.05.34.05.13,0,.24-.02.31-.07.08-.04.14-.1.19-.18.04-.06.1-.21.18-.44.01-.03.03-.08.05-.14l-1.32-3.49h.64l.72,2.02c.09.26.18.52.25.81.07-.27.15-.54.24-.79l.74-2.03h.59l-1.32,3.54c-.14.38-.25.65-.33.79-.1.19-.22.34-.36.43s-.3.14-.49.14c-.11,0-.24-.02-.38-.07Z"/>
    <path class="cls-11" d="M385.48,238.04v-4.8h1.66c.37,0,.66.02.86.07.28.06.51.18.7.34.25.21.44.49.57.82.12.33.19.71.19,1.14,0,.36-.04.69-.13.97-.09.28-.2.52-.33.7s-.28.33-.44.44-.35.19-.57.24c-.22.05-.48.08-.77.08h-1.73ZM386.12,237.47h1.03c.32,0,.57-.03.75-.09.18-.06.32-.14.43-.25.15-.15.27-.35.35-.61.08-.25.13-.56.13-.93,0-.5-.08-.89-.25-1.16s-.37-.45-.6-.54c-.17-.07-.44-.1-.82-.1h-1.01v3.67Z"/>
    <path class="cls-11" d="M390.25,233.92v-.68h.59v.68h-.59ZM390.25,238.04v-3.48h.59v3.48h-.59Z"/>
    <path class="cls-11" d="M391.74,238.04v-3.48h.53v.49c.11-.17.25-.31.44-.41.18-.1.39-.16.62-.16.26,0,.47.05.63.16s.28.26.35.45c.28-.41.63-.61,1.07-.61.35,0,.61.1.8.29.19.19.28.49.28.88v2.39h-.59v-2.19c0-.24-.02-.41-.06-.51-.04-.1-.11-.19-.21-.25-.1-.06-.22-.1-.35-.1-.24,0-.45.08-.61.24-.16.16-.24.42-.24.78v2.02h-.59v-2.26c0-.26-.05-.46-.14-.59-.1-.13-.25-.2-.47-.2-.17,0-.32.04-.46.13s-.24.21-.31.38c-.06.17-.09.41-.09.73v1.81h-.59Z"/>
    <path class="cls-11" d="M399.72,236.92l.61.08c-.1.36-.27.63-.53.83s-.59.29-1,.29c-.51,0-.91-.16-1.21-.47-.3-.31-.45-.75-.45-1.32s.15-1.04.45-1.36c.3-.32.69-.48,1.17-.48s.85.16,1.14.48c.29.32.44.76.44,1.34,0,.03,0,.09,0,.16h-2.6c.02.38.13.67.32.88.19.2.44.3.73.3.22,0,.4-.06.55-.17.15-.11.27-.29.36-.54ZM397.78,235.97h1.94c-.03-.29-.1-.51-.22-.66-.19-.23-.43-.34-.73-.34-.27,0-.5.09-.68.27-.18.18-.29.42-.31.73Z"/>
    <path class="cls-11" d="M401.07,238.04v-3.48h.53v.5c.25-.38.62-.57,1.11-.57.21,0,.4.04.58.11.18.08.31.17.4.3.09.12.15.27.18.44.02.11.03.3.03.57v2.14h-.59v-2.12c0-.24-.02-.42-.07-.54s-.13-.21-.24-.29c-.12-.07-.25-.11-.41-.11-.25,0-.47.08-.65.24-.18.16-.27.46-.27.91v1.9h-.59Z"/>
    <path class="cls-11" d="M404.56,237l.58-.09c.03.23.12.41.27.54s.36.19.63.19.47-.06.6-.17.2-.24.2-.39c0-.13-.06-.24-.17-.31-.08-.05-.28-.12-.6-.2-.43-.11-.73-.2-.9-.28-.17-.08-.29-.19-.38-.33-.09-.14-.13-.3-.13-.47,0-.16.04-.3.11-.43.07-.13.17-.24.29-.33.09-.07.22-.12.38-.17.16-.05.33-.07.51-.07.27,0,.51.04.72.12.21.08.36.19.46.32s.17.31.2.54l-.58.08c-.03-.18-.1-.32-.23-.42-.12-.1-.3-.15-.53-.15-.27,0-.46.04-.58.13-.12.09-.17.19-.17.31,0,.08.02.15.07.21.05.06.12.12.23.16.06.02.23.07.52.15.42.11.71.2.87.27.17.07.29.17.39.31.09.14.14.3.14.5s-.06.38-.17.56c-.11.17-.28.31-.5.4-.22.1-.46.14-.73.14-.45,0-.8-.09-1.03-.28s-.39-.47-.45-.84Z"/>
    <path class="cls-11" d="M408.16,233.92v-.68h.59v.68h-.59ZM408.16,238.04v-3.48h.59v3.48h-.59Z"/>
    <path class="cls-11" d="M409.43,236.3c0-.64.18-1.12.54-1.43.3-.26.66-.39,1.09-.39.48,0,.87.16,1.17.47s.46.75.46,1.3c0,.45-.07.8-.2,1.06-.13.26-.33.46-.59.6s-.54.21-.84.21c-.49,0-.88-.16-1.18-.47-.3-.31-.45-.76-.45-1.35ZM410.03,236.3c0,.45.1.78.29,1,.19.22.44.33.73.33s.54-.11.73-.33c.19-.22.29-.56.29-1.02,0-.43-.1-.76-.29-.98-.2-.22-.44-.33-.73-.33s-.54.11-.73.33-.29.55-.29,1Z"/>
    <path class="cls-11" d="M413.38,238.04v-3.48h.53v.5c.25-.38.62-.57,1.11-.57.21,0,.4.04.58.11.18.08.31.17.4.3.09.12.15.27.18.44.02.11.03.3.03.57v2.14h-.59v-2.12c0-.24-.02-.42-.07-.54s-.13-.21-.24-.29c-.12-.07-.25-.11-.41-.11-.25,0-.47.08-.65.24-.18.16-.27.46-.27.91v1.9h-.59Z"/>
  </g>
  <g>
    <path class="cls-11" d="M359.86,248.11v-4.8h.64v4.24h2.37v.57h-3Z"/>
    <path class="cls-11" d="M363.55,243.99v-.68h.59v.68h-.59ZM363.55,248.11v-3.48h.59v3.48h-.59Z"/>
    <path class="cls-11" d="M365.03,248.11v-3.48h.53v.5c.25-.38.62-.57,1.11-.57.21,0,.4.04.58.11.18.08.31.17.4.3.09.12.15.27.18.44.02.11.03.3.03.57v2.14h-.59v-2.12c0-.24-.02-.42-.07-.54s-.13-.21-.24-.29c-.12-.07-.25-.11-.41-.11-.25,0-.47.08-.65.24-.18.16-.27.46-.27.91v1.9h-.59Z"/>
    <path class="cls-11" d="M368.77,248.11v-4.8h.59v2.74l1.4-1.42h.76l-1.33,1.29,1.47,2.19h-.73l-1.15-1.78-.42.4v1.38h-.59Z"/>
    <path class="cls-11" d="M374.4,247.68c-.22.19-.43.32-.63.39-.2.08-.42.11-.65.11-.38,0-.68-.09-.88-.28-.21-.19-.31-.43-.31-.72,0-.17.04-.33.12-.47.08-.14.18-.25.31-.34.12-.09.27-.15.42-.19.12-.03.29-.06.52-.09.48-.06.83-.12,1.05-.2,0-.08,0-.13,0-.15,0-.24-.06-.41-.17-.51-.15-.13-.38-.2-.67-.2-.28,0-.48.05-.62.15-.13.1-.23.27-.29.52l-.58-.08c.05-.25.14-.45.26-.6s.29-.27.52-.35.49-.12.79-.12.54.04.72.1c.19.07.32.16.41.26.09.11.15.24.18.4.02.1.03.28.03.54v.79c0,.55.01.9.04,1.04.02.15.07.28.15.42h-.62c-.06-.12-.1-.27-.12-.43ZM374.35,246.37c-.21.09-.54.16-.96.22-.24.04-.41.07-.51.12-.1.04-.18.11-.23.19-.05.08-.08.18-.08.28,0,.16.06.29.18.39.12.1.29.16.52.16s.43-.05.61-.15c.18-.1.31-.24.39-.41.06-.13.09-.33.09-.59v-.22Z"/>
    <path class="cls-11" d="M375.75,248.4l.57.08c.02.18.09.31.2.39.15.11.35.16.6.16.27,0,.48-.05.63-.16s.25-.26.3-.46c.03-.12.04-.37.04-.76-.26.3-.58.46-.96.46-.48,0-.85-.17-1.11-.52-.26-.35-.39-.76-.39-1.24,0-.33.06-.64.18-.92s.29-.5.52-.65c.23-.15.5-.23.8-.23.41,0,.75.17,1.02.5v-.42h.54v3.01c0,.54-.06.93-.17,1.15s-.29.4-.52.54c-.24.13-.53.2-.88.2-.42,0-.75-.09-1.01-.28-.26-.19-.38-.47-.37-.84ZM376.24,246.31c0,.46.09.79.27,1,.18.21.41.31.68.31s.5-.1.68-.31.28-.54.28-.98-.09-.75-.28-.96c-.19-.22-.42-.32-.68-.32s-.49.11-.67.32c-.18.21-.28.53-.28.95Z"/>
    <path class="cls-11" d="M381.97,246.99l.61.08c-.1.36-.27.63-.53.83s-.59.29-1,.29c-.51,0-.91-.16-1.21-.47-.3-.31-.45-.75-.45-1.32s.15-1.04.45-1.36c.3-.32.69-.48,1.17-.48s.85.16,1.14.48c.29.32.44.76.44,1.34,0,.03,0,.09,0,.16h-2.6c.02.38.13.67.32.88.19.2.44.3.73.3.22,0,.4-.06.55-.17.15-.11.27-.29.36-.54ZM380.03,246.04h1.94c-.03-.29-.1-.51-.22-.66-.19-.23-.43-.34-.73-.34-.27,0-.5.09-.68.27-.18.18-.29.42-.31.73Z"/>
    <path class="cls-11" d="M385.26,248.11v-4.8h1.66c.37,0,.66.02.86.07.28.06.51.18.7.34.25.21.44.49.57.82.12.33.19.71.19,1.14,0,.36-.04.69-.13.97-.09.28-.2.52-.33.7s-.28.33-.44.44-.35.19-.57.24c-.22.05-.48.08-.77.08h-1.73ZM385.9,247.55h1.03c.32,0,.57-.03.75-.09.18-.06.32-.14.43-.25.15-.15.27-.35.35-.61.08-.25.13-.56.13-.93,0-.5-.08-.89-.25-1.16s-.37-.45-.6-.54c-.17-.07-.44-.1-.82-.1h-1.01v3.67Z"/>
    <path class="cls-11" d="M390.04,243.99v-.68h.59v.68h-.59ZM390.04,248.11v-3.48h.59v3.48h-.59Z"/>
    <path class="cls-11" d="M391.53,248.11v-3.48h.53v.49c.11-.17.25-.31.44-.41.18-.1.39-.16.62-.16.26,0,.47.05.63.16s.28.26.35.45c.28-.41.63-.61,1.07-.61.35,0,.61.1.8.29.19.19.28.49.28.88v2.39h-.59v-2.19c0-.24-.02-.41-.06-.51-.04-.1-.11-.19-.21-.25-.1-.06-.22-.1-.35-.1-.24,0-.45.08-.61.24-.16.16-.24.42-.24.78v2.02h-.59v-2.26c0-.26-.05-.46-.14-.59-.1-.13-.25-.2-.47-.2-.17,0-.32.04-.46.13s-.24.21-.31.38c-.06.17-.09.41-.09.73v1.81h-.59Z"/>
    <path class="cls-11" d="M399.5,246.99l.61.08c-.1.36-.27.63-.53.83s-.59.29-1,.29c-.51,0-.91-.16-1.21-.47-.3-.31-.45-.75-.45-1.32s.15-1.04.45-1.36c.3-.32.69-.48,1.17-.48s.85.16,1.14.48c.29.32.44.76.44,1.34,0,.03,0,.09,0,.16h-2.6c.02.38.13.67.32.88.19.2.44.3.73.3.22,0,.4-.06.55-.17.15-.11.27-.29.36-.54ZM397.56,246.04h1.94c-.03-.29-.1-.51-.22-.66-.19-.23-.43-.34-.73-.34-.27,0-.5.09-.68.27-.18.18-.29.42-.31.73Z"/>
    <path class="cls-11" d="M400.85,248.11v-3.48h.53v.5c.25-.38.62-.57,1.11-.57.21,0,.4.04.58.11.18.08.31.17.4.3.09.12.15.27.18.44.02.11.03.3.03.57v2.14h-.59v-2.12c0-.24-.02-.42-.07-.54s-.13-.21-.24-.29c-.12-.07-.25-.11-.41-.11-.25,0-.47.08-.65.24-.18.16-.27.46-.27.91v1.9h-.59Z"/>
    <path class="cls-11" d="M404.34,247.07l.58-.09c.03.23.12.41.27.54s.36.19.63.19.47-.06.6-.17.2-.24.2-.39c0-.13-.06-.24-.17-.31-.08-.05-.28-.12-.6-.2-.43-.11-.73-.2-.9-.28-.17-.08-.29-.19-.38-.33-.09-.14-.13-.3-.13-.47,0-.16.04-.3.11-.43.07-.13.17-.24.29-.33.09-.07.22-.12.38-.17.16-.05.33-.07.51-.07.27,0,.51.04.72.12.21.08.36.19.46.32s.17.31.2.54l-.58.08c-.03-.18-.1-.32-.23-.42-.12-.1-.3-.15-.53-.15-.27,0-.46.04-.58.13-.12.09-.17.19-.17.31,0,.08.02.15.07.21.05.06.12.12.23.16.06.02.23.07.52.15.42.11.71.2.87.27.17.07.29.17.39.31.09.14.14.3.14.5s-.06.38-.17.56c-.11.17-.28.31-.5.4-.22.1-.46.14-.73.14-.45,0-.8-.09-1.03-.28s-.39-.47-.45-.84Z"/>
    <path class="cls-11" d="M407.94,243.99v-.68h.59v.68h-.59ZM407.94,248.11v-3.48h.59v3.48h-.59Z"/>
    <path class="cls-11" d="M409.21,246.37c0-.64.18-1.12.54-1.43.3-.26.66-.39,1.09-.39.48,0,.87.16,1.17.47s.46.75.46,1.3c0,.45-.07.8-.2,1.06-.13.26-.33.46-.59.6s-.54.21-.84.21c-.49,0-.88-.16-1.18-.47-.3-.31-.45-.76-.45-1.35ZM409.82,246.37c0,.45.1.78.29,1,.19.22.44.33.73.33s.54-.11.73-.33c.19-.22.29-.56.29-1.02,0-.43-.1-.76-.29-.98-.2-.22-.44-.33-.73-.33s-.54.11-.73.33-.29.55-.29,1Z"/>
    <path class="cls-11" d="M413.16,248.11v-3.48h.53v.5c.25-.38.62-.57,1.11-.57.21,0,.4.04.58.11.18.08.31.17.4.3.09.12.15.27.18.44.02.11.03.3.03.57v2.14h-.59v-2.12c0-.24-.02-.42-.07-.54s-.13-.21-.24-.29c-.12-.07-.25-.11-.41-.11-.25,0-.47.08-.65.24-.18.16-.27.46-.27.91v1.9h-.59Z"/>
  </g>
  <line class="cls-10" x1="420.83" y1="256.54" x2="436.65" y2="256.54"/>
  <polyline class="cls-1" points="437.08 256.54 446.47 256.54 446.47 301.07 468.59 301.07"/>
  <g>
    <path class="cls-11" d="M377.48,258.99v-4.24h-1.58v-.57h3.81v.57h-1.59v4.24h-.64Z"/>
    <path class="cls-11" d="M381.92,257.87l.61.08c-.1.36-.27.63-.53.83s-.59.29-1,.29c-.51,0-.91-.16-1.21-.47-.3-.31-.45-.75-.45-1.32s.15-1.04.45-1.36c.3-.32.69-.48,1.17-.48s.85.16,1.14.48c.29.32.44.76.44,1.34,0,.03,0,.09,0,.16h-2.6c.02.38.13.67.32.88.19.2.44.3.73.3.22,0,.4-.06.55-.17.15-.11.27-.29.36-.54ZM379.99,256.92h1.94c-.03-.29-.1-.51-.22-.66-.19-.23-.43-.34-.73-.34-.27,0-.5.09-.68.27-.18.18-.29.42-.31.73Z"/>
    <path class="cls-11" d="M383.27,258.99v-3.48h.53v.5c.25-.38.62-.57,1.11-.57.21,0,.4.04.58.11.18.08.31.17.4.3.09.12.15.27.18.44.02.11.03.3.03.57v2.14h-.59v-2.12c0-.24-.02-.42-.07-.54s-.13-.21-.24-.29c-.12-.07-.25-.11-.41-.11-.25,0-.47.08-.65.24-.18.16-.27.46-.27.91v1.9h-.59Z"/>
    <path class="cls-11" d="M389.26,258.99v-.44c-.22.35-.54.52-.97.52-.28,0-.53-.08-.77-.23s-.41-.37-.54-.64c-.13-.27-.19-.59-.19-.95s.06-.66.17-.95c.12-.28.29-.5.52-.65s.49-.23.78-.23c.21,0,.4.04.56.13.16.09.3.2.4.35v-1.72h.59v4.8h-.55ZM387.4,257.26c0,.45.09.78.28,1,.19.22.41.33.67.33s.48-.11.66-.32c.18-.21.27-.53.27-.97,0-.48-.09-.83-.28-1.05-.18-.22-.41-.33-.68-.33s-.48.11-.66.32c-.18.21-.26.55-.26,1.01Z"/>
    <path class="cls-11" d="M390.52,257.25c0-.64.18-1.12.54-1.43.3-.26.66-.39,1.09-.39.48,0,.87.16,1.17.47s.46.75.46,1.3c0,.45-.07.8-.2,1.06-.13.26-.33.46-.59.6s-.54.21-.84.21c-.49,0-.88-.16-1.18-.47-.3-.31-.45-.76-.45-1.35ZM391.12,257.25c0,.45.1.78.29,1,.19.22.44.33.73.33s.54-.11.73-.33c.19-.22.29-.56.29-1.02,0-.43-.1-.76-.29-.98-.2-.22-.44-.33-.73-.33s-.54.11-.73.33-.29.55-.29,1Z"/>
    <path class="cls-11" d="M394.47,258.99v-3.48h.53v.5c.25-.38.62-.57,1.11-.57.21,0,.4.04.58.11.18.08.31.17.4.3.09.12.15.27.18.44.02.11.03.3.03.57v2.14h-.59v-2.12c0-.24-.02-.42-.07-.54s-.13-.21-.24-.29c-.12-.07-.25-.11-.41-.11-.25,0-.47.08-.65.24-.18.16-.27.46-.27.91v1.9h-.59Z"/>
    <path class="cls-11" d="M400.18,258.99v-4.8h3.24v.57h-2.61v1.49h2.25v.57h-2.25v2.18h-.64Z"/>
    <path class="cls-11" d="M403.95,257.25c0-.64.18-1.12.54-1.43.3-.26.66-.39,1.09-.39.48,0,.87.16,1.17.47s.46.75.46,1.3c0,.45-.07.8-.2,1.06-.13.26-.33.46-.59.6s-.54.21-.84.21c-.49,0-.88-.16-1.18-.47-.3-.31-.45-.76-.45-1.35ZM404.56,257.25c0,.45.1.78.29,1,.19.22.44.33.73.33s.54-.11.73-.33c.19-.22.29-.56.29-1.02,0-.43-.1-.76-.29-.98-.2-.22-.44-.33-.73-.33s-.54.11-.73.33-.29.55-.29,1Z"/>
    <path class="cls-11" d="M407.89,258.99v-3.48h.53v.53c.14-.25.26-.41.38-.49.12-.08.24-.12.38-.12.2,0,.4.06.61.19l-.2.55c-.14-.08-.29-.13-.43-.13-.13,0-.25.04-.35.12s-.18.19-.22.32c-.07.21-.1.44-.1.69v1.82h-.59Z"/>
    <path class="cls-11" d="M412.41,257.72l.58.08c-.06.4-.23.71-.49.94-.26.23-.58.34-.96.34-.48,0-.86-.16-1.15-.47-.29-.31-.43-.76-.43-1.34,0-.38.06-.7.19-.99.12-.28.31-.49.57-.63s.53-.21.83-.21c.38,0,.69.1.93.29.24.19.39.46.46.81l-.57.09c-.05-.23-.15-.41-.29-.53-.14-.12-.31-.18-.5-.18-.3,0-.54.11-.72.32-.19.21-.28.55-.28,1.01s.09.81.27,1.02c.18.21.41.32.7.32.23,0,.42-.07.58-.21.15-.14.25-.36.29-.66Z"/>
    <path class="cls-11" d="M415.87,257.87l.61.08c-.1.36-.27.63-.53.83s-.59.29-1,.29c-.51,0-.91-.16-1.21-.47-.3-.31-.45-.75-.45-1.32s.15-1.04.45-1.36c.3-.32.69-.48,1.17-.48s.85.16,1.14.48c.29.32.44.76.44,1.34,0,.03,0,.09,0,.16h-2.6c.02.38.13.67.32.88.19.2.44.3.73.3.22,0,.4-.06.55-.17.15-.11.27-.29.36-.54ZM413.94,256.92h1.94c-.03-.29-.1-.51-.22-.66-.19-.23-.43-.34-.73-.34-.27,0-.5.09-.68.27-.18.18-.29.42-.31.73Z"/>
  </g>
  <path class="cls-12" d="M158.84,266.23h-3.2v-2.46h3.2v-3.36h2.53v3.36h3.2v2.46h-3.2v3.35h-2.53v-3.35Z"/>
  <polyline class="cls-1" points="605.57 337.49 632.75 337.49 632.75 254.19"/>
  <polyline class="cls-5" points="266.17 271.89 301.48 271.89 301.48 337.49 605.57 337.49"/>
  <polyline class="cls-7" points="374.92 380.68 155.65 380.68 155.65 272.59"/>
  <polyline class="cls-5" points="538.1 236.66 587.81 236.66 587.81 380.68 374.92 380.68"/>
  <line class="cls-1" x1="591.62" y1="246.68" x2="620.25" y2="246.68"/>
  <line class="cls-5" x1="538.1" y1="246.68" x2="591.62" y2="246.68"/>
  <polyline class="cls-7" points="369.39 367.14 164.58 367.14 164.58 272.87"/>
  <polyline class="cls-5" points="538.1 298.26 568.2 298.26 568.2 367.14 369.39 367.14"/>
  <path class="cls-12" d="M627.01,248h-3.2v-2.46h3.2v-3.36h2.53v3.36h3.2v2.46h-3.2v3.35h-2.53v-3.35Z"/>
  <rect class="cls-2" x="621.18" y="239.86" width="13.64" height="13.64"/>
  <polyline class="cls-1" points="593.48 309.35 625.86 309.35 625.86 255.19"/>
  <line class="cls-5" x1="539.17" y1="309.35" x2="593.48" y2="309.35"/>
  <g>
    <path class="cls-11" d="M545.81,231.35v-.56h2.04s0,1.78,0,1.78c-.31.25-.63.44-.97.56s-.67.19-1.02.19c-.47,0-.9-.1-1.29-.3s-.68-.49-.87-.88c-.2-.38-.29-.81-.29-1.28s.1-.9.29-1.31.48-.71.84-.9.79-.29,1.27-.29c.35,0,.66.06.94.17.28.11.5.27.66.47.16.2.28.46.36.79l-.57.16c-.07-.24-.16-.44-.27-.58-.11-.14-.26-.25-.46-.34-.2-.08-.42-.13-.66-.13-.29,0-.54.04-.75.13s-.38.2-.51.35c-.13.14-.23.3-.3.48-.12.3-.18.62-.18.97,0,.43.07.79.22,1.07.15.29.36.5.64.64.28.14.58.21.9.21.28,0,.54-.05.81-.16.26-.11.46-.22.6-.34v-.89h-1.41Z"/>
    <path class="cls-11" d="M548.7,233.24v-3.48h.53v.53c.14-.25.26-.41.38-.49.12-.08.24-.12.38-.12.2,0,.4.06.61.19l-.2.55c-.14-.08-.29-.13-.43-.13-.13,0-.25.04-.35.12s-.18.19-.22.32c-.07.21-.1.44-.1.69v1.82h-.59Z"/>
    <path class="cls-11" d="M550.94,229.11v-.68h.59v.68h-.59ZM550.94,233.24v-3.48h.59v3.48h-.59Z"/>
    <path class="cls-11" d="M552.43,234.57v-4.81h.54v.45c.13-.18.27-.31.43-.4s.35-.13.58-.13c.3,0,.56.08.79.23.23.15.4.37.51.65.12.28.17.58.17.92,0,.36-.06.68-.19.96s-.31.5-.56.66c-.24.15-.5.23-.77.23-.2,0-.37-.04-.53-.12s-.28-.19-.38-.31v1.69h-.59ZM552.96,231.52c0,.45.09.78.27.99.18.21.4.32.66.32s.49-.11.67-.33c.19-.22.28-.57.28-1.03s-.09-.78-.27-1c-.18-.22-.4-.33-.65-.33s-.47.12-.67.35-.29.58-.29,1.02Z"/>
    <path class="cls-11" d="M556.16,234.57v-4.81h.54v.45c.13-.18.27-.31.43-.4s.35-.13.58-.13c.3,0,.56.08.79.23.23.15.4.37.51.65.12.28.17.58.17.92,0,.36-.06.68-.19.96s-.31.5-.56.66c-.24.15-.5.23-.77.23-.2,0-.37-.04-.53-.12s-.28-.19-.38-.31v1.69h-.59ZM556.7,231.52c0,.45.09.78.27.99.18.21.4.32.66.32s.49-.11.67-.33c.19-.22.28-.57.28-1.03s-.09-.78-.27-1c-.18-.22-.4-.33-.65-.33s-.47.12-.67.35-.29.58-.29,1.02Z"/>
    <path class="cls-11" d="M562.28,232.12l.61.08c-.1.36-.27.63-.53.83s-.59.29-1,.29c-.51,0-.91-.16-1.21-.47-.3-.31-.45-.75-.45-1.32s.15-1.04.45-1.36c.3-.32.69-.48,1.17-.48s.85.16,1.14.48c.29.32.44.76.44,1.34,0,.03,0,.09,0,.16h-2.6c.02.38.13.67.32.88.19.2.44.3.73.3.22,0,.4-.06.55-.17.15-.11.27-.29.36-.54ZM560.34,231.16h1.94c-.03-.29-.1-.51-.22-.66-.19-.23-.43-.34-.73-.34-.27,0-.5.09-.68.27-.18.18-.29.42-.31.73Z"/>
    <path class="cls-11" d="M563.62,233.24v-3.48h.53v.53c.14-.25.26-.41.38-.49.12-.08.24-.12.38-.12.2,0,.4.06.61.19l-.2.55c-.14-.08-.29-.13-.43-.13-.13,0-.25.04-.35.12s-.18.19-.22.32c-.07.21-.1.44-.1.69v1.82h-.59Z"/>
    <path class="cls-11" d="M567.78,233.24v-4.8h.96l1.14,3.4c.11.32.18.55.23.71.05-.17.14-.43.26-.77l1.15-3.34h.86v4.8h-.61v-4.02l-1.4,4.02h-.57l-1.39-4.09v4.09h-.61Z"/>
    <path class="cls-11" d="M575.59,232.81c-.22.19-.43.32-.63.39-.2.08-.42.11-.65.11-.38,0-.68-.09-.88-.28-.21-.19-.31-.43-.31-.72,0-.17.04-.33.12-.47.08-.14.18-.25.31-.34.12-.09.27-.15.42-.19.12-.03.29-.06.52-.09.48-.06.83-.12,1.05-.2,0-.08,0-.13,0-.15,0-.24-.06-.41-.17-.51-.15-.13-.38-.2-.67-.2-.28,0-.48.05-.62.15-.13.1-.23.27-.29.52l-.58-.08c.05-.25.14-.45.26-.6s.29-.27.52-.35.49-.12.79-.12.54.04.72.1c.19.07.32.16.41.26.09.11.15.24.18.4.02.1.03.28.03.54v.79c0,.55.01.9.04,1.04.02.15.07.28.15.42h-.62c-.06-.12-.1-.27-.12-.43ZM575.54,231.49c-.21.09-.54.16-.96.22-.24.04-.41.07-.51.12-.1.04-.18.11-.23.19-.05.08-.08.18-.08.28,0,.16.06.29.18.39.12.1.29.16.52.16s.43-.05.61-.15c.18-.1.31-.24.39-.41.06-.13.09-.33.09-.59v-.22Z"/>
    <path class="cls-11" d="M576.81,232.2l.58-.09c.03.23.12.41.27.54s.36.19.63.19.47-.06.6-.17.2-.24.2-.39c0-.13-.06-.24-.17-.31-.08-.05-.28-.12-.6-.2-.43-.11-.73-.2-.9-.28-.17-.08-.29-.19-.38-.33-.09-.14-.13-.3-.13-.47,0-.16.04-.3.11-.43.07-.13.17-.24.29-.33.09-.07.22-.12.38-.17.16-.05.33-.07.51-.07.27,0,.51.04.72.12.21.08.36.19.46.32s.17.31.2.54l-.58.08c-.03-.18-.1-.32-.23-.42-.12-.1-.3-.15-.53-.15-.27,0-.46.04-.58.13-.12.09-.17.19-.17.31,0,.08.02.15.07.21.05.06.12.12.23.16.06.02.23.07.52.15.42.11.71.2.87.27.17.07.29.17.39.31.09.14.14.3.14.5s-.06.38-.17.56c-.11.17-.28.31-.5.4-.22.1-.46.14-.73.14-.45,0-.8-.09-1.03-.28s-.39-.47-.45-.84Z"/>
    <path class="cls-11" d="M580.17,232.2l.58-.09c.03.23.12.41.27.54s.36.19.63.19.47-.06.6-.17.2-.24.2-.39c0-.13-.06-.24-.17-.31-.08-.05-.28-.12-.6-.2-.43-.11-.73-.2-.9-.28-.17-.08-.29-.19-.38-.33-.09-.14-.13-.3-.13-.47,0-.16.04-.3.11-.43.07-.13.17-.24.29-.33.09-.07.22-.12.38-.17.16-.05.33-.07.51-.07.27,0,.51.04.72.12.21.08.36.19.46.32s.17.31.2.54l-.58.08c-.03-.18-.1-.32-.23-.42-.12-.1-.3-.15-.53-.15-.27,0-.46.04-.58.13-.12.09-.17.19-.17.31,0,.08.02.15.07.21.05.06.12.12.23.16.06.02.23.07.52.15.42.11.71.2.87.27.17.07.29.17.39.31.09.14.14.3.14.5s-.06.38-.17.56c-.11.17-.28.31-.5.4-.22.1-.46.14-.73.14-.45,0-.8-.09-1.03-.28s-.39-.47-.45-.84Z"/>
  </g>
  <g>
    <path class="cls-11" d="M546.16,253.31v-.56h2.04s0,1.78,0,1.78c-.31.25-.63.44-.97.56s-.67.19-1.02.19c-.47,0-.9-.1-1.29-.3s-.68-.49-.87-.88c-.2-.38-.29-.81-.29-1.28s.1-.9.29-1.31.48-.71.84-.9.79-.29,1.27-.29c.35,0,.66.06.94.17.28.11.5.27.66.47.16.2.28.46.36.79l-.57.16c-.07-.24-.16-.44-.27-.58-.11-.14-.26-.25-.46-.34-.2-.08-.42-.13-.66-.13-.29,0-.54.04-.75.13s-.38.2-.51.35c-.13.14-.23.3-.3.48-.12.3-.18.62-.18.97,0,.43.07.79.22,1.07.15.29.36.5.64.64.28.14.58.21.9.21.28,0,.54-.05.81-.16.26-.11.46-.22.6-.34v-.89h-1.41Z"/>
    <path class="cls-11" d="M549.05,255.19v-3.48h.53v.53c.14-.25.26-.41.38-.49.12-.08.24-.12.38-.12.2,0,.4.06.61.19l-.2.55c-.14-.08-.29-.13-.43-.13-.13,0-.25.04-.35.12s-.18.19-.22.32c-.07.21-.1.44-.1.69v1.82h-.59Z"/>
    <path class="cls-11" d="M551.3,251.07v-.68h.59v.68h-.59ZM551.3,255.19v-3.48h.59v3.48h-.59Z"/>
    <path class="cls-11" d="M552.78,256.53v-4.81h.54v.45c.13-.18.27-.31.43-.4s.35-.13.58-.13c.3,0,.56.08.79.23.23.15.4.37.51.65.12.28.17.58.17.92,0,.36-.06.68-.19.96s-.31.5-.56.66c-.24.15-.5.23-.77.23-.2,0-.37-.04-.53-.12s-.28-.19-.38-.31v1.69h-.59ZM553.32,253.47c0,.45.09.78.27.99.18.21.4.32.66.32s.49-.11.67-.33c.19-.22.28-.57.28-1.03s-.09-.78-.27-1c-.18-.22-.4-.33-.65-.33s-.47.12-.67.35-.29.58-.29,1.02Z"/>
    <path class="cls-11" d="M556.52,256.53v-4.81h.54v.45c.13-.18.27-.31.43-.4s.35-.13.58-.13c.3,0,.56.08.79.23.23.15.4.37.51.65.12.28.17.58.17.92,0,.36-.06.68-.19.96s-.31.5-.56.66c-.24.15-.5.23-.77.23-.2,0-.37-.04-.53-.12s-.28-.19-.38-.31v1.69h-.59ZM557.05,253.47c0,.45.09.78.27.99.18.21.4.32.66.32s.49-.11.67-.33c.19-.22.28-.57.28-1.03s-.09-.78-.27-1c-.18-.22-.4-.33-.65-.33s-.47.12-.67.35-.29.58-.29,1.02Z"/>
    <path class="cls-11" d="M562.63,254.07l.61.08c-.1.36-.27.63-.53.83s-.59.29-1,.29c-.51,0-.91-.16-1.21-.47-.3-.31-.45-.75-.45-1.32s.15-1.04.45-1.36c.3-.32.69-.48,1.17-.48s.85.16,1.14.48c.29.32.44.76.44,1.34,0,.03,0,.09,0,.16h-2.6c.02.38.13.67.32.88.19.2.44.3.73.3.22,0,.4-.06.55-.17.15-.11.27-.29.36-.54ZM560.7,253.12h1.94c-.03-.29-.1-.51-.22-.66-.19-.23-.43-.34-.73-.34-.27,0-.5.09-.68.27-.18.18-.29.42-.31.73Z"/>
    <path class="cls-11" d="M563.98,255.19v-3.48h.53v.53c.14-.25.26-.41.38-.49.12-.08.24-.12.38-.12.2,0,.4.06.61.19l-.2.55c-.14-.08-.29-.13-.43-.13-.13,0-.25.04-.35.12s-.18.19-.22.32c-.07.21-.1.44-.1.69v1.82h-.59Z"/>
    <path class="cls-11" d="M570.35,253.92l.58.08c-.06.4-.23.71-.49.94-.26.23-.58.34-.96.34-.48,0-.86-.16-1.15-.47-.29-.31-.43-.76-.43-1.34,0-.38.06-.7.19-.99.12-.28.31-.49.57-.63s.53-.21.83-.21c.38,0,.69.1.93.29.24.19.39.46.46.81l-.57.09c-.05-.23-.15-.41-.29-.53-.14-.12-.31-.18-.5-.18-.3,0-.54.11-.72.32-.19.21-.28.55-.28,1.01s.09.81.27,1.02c.18.21.41.32.7.32.23,0,.42-.07.58-.21.15-.14.25-.36.29-.66Z"/>
    <path class="cls-11" d="M571.22,253.45c0-.64.18-1.12.54-1.43.3-.26.66-.39,1.09-.39.48,0,.87.16,1.17.47s.46.75.46,1.3c0,.45-.07.8-.2,1.06-.13.26-.33.46-.59.6s-.54.21-.84.21c-.49,0-.88-.16-1.18-.47-.3-.31-.45-.76-.45-1.35ZM571.83,253.45c0,.45.1.78.29,1,.19.22.44.33.73.33s.54-.11.73-.33c.19-.22.29-.56.29-1.02,0-.43-.1-.76-.29-.98-.2-.22-.44-.33-.73-.33s-.54.11-.73.33-.29.55-.29,1Z"/>
    <path class="cls-11" d="M574.93,254.15l.58-.09c.03.23.12.41.27.54s.36.19.63.19.47-.06.6-.17.2-.24.2-.39c0-.13-.06-.24-.17-.31-.08-.05-.28-.12-.6-.2-.43-.11-.73-.2-.9-.28-.17-.08-.29-.19-.38-.33-.09-.14-.13-.3-.13-.47,0-.16.04-.3.11-.43.07-.13.17-.24.29-.33.09-.07.22-.12.38-.17.16-.05.33-.07.51-.07.27,0,.51.04.72.12.21.08.36.19.46.32s.17.31.2.54l-.58.08c-.03-.18-.1-.32-.23-.42-.12-.1-.3-.15-.53-.15-.27,0-.46.04-.58.13-.12.09-.17.19-.17.31,0,.08.02.15.07.21.05.06.12.12.23.16.06.02.23.07.52.15.42.11.71.2.87.27.17.07.29.17.39.31.09.14.14.3.14.5s-.06.38-.17.56c-.11.17-.28.31-.5.4-.22.1-.46.14-.73.14-.45,0-.8-.09-1.03-.28s-.39-.47-.45-.84Z"/>
    <path class="cls-11" d="M579.82,254.66l.08.52c-.17.03-.31.05-.45.05-.21,0-.38-.03-.5-.1-.12-.07-.2-.16-.25-.27-.05-.11-.07-.34-.07-.7v-2h-.43v-.46h.43v-.86l.59-.35v1.22h.59v.46h-.59v2.04c0,.17.01.28.03.32.02.05.05.09.1.11s.11.04.2.04c.07,0,.15,0,.26-.02Z"/>
  </g>
  <g>
    <path class="cls-11" d="M267.51,267.82v-4.8h2.13c.43,0,.75.04.98.13.22.09.4.24.53.46.13.22.2.46.2.72,0,.34-.11.63-.33.86-.22.23-.56.38-1.02.45.17.08.3.16.38.24.19.17.36.38.53.64l.84,1.31h-.8l-.64-1c-.19-.29-.34-.51-.46-.66s-.23-.26-.32-.32c-.1-.06-.19-.1-.29-.13-.07-.02-.19-.02-.35-.02h-.74v2.13h-.64ZM268.15,265.13h1.37c.29,0,.52-.03.68-.09s.29-.16.37-.29c.09-.13.13-.28.13-.43,0-.23-.08-.41-.25-.56-.17-.15-.43-.22-.78-.22h-1.52v1.59Z"/>
    <path class="cls-11" d="M272.05,266.08c0-.64.18-1.12.54-1.43.3-.26.66-.39,1.09-.39.48,0,.87.16,1.17.47s.46.75.46,1.3c0,.45-.07.8-.2,1.06-.13.26-.33.46-.59.6s-.54.21-.84.21c-.49,0-.88-.16-1.18-.47-.3-.31-.45-.76-.45-1.35ZM272.66,266.08c0,.45.1.78.29,1,.19.22.44.33.73.33s.54-.11.73-.33c.19-.22.29-.56.29-1.02,0-.43-.1-.76-.29-.98-.2-.22-.44-.33-.73-.33s-.54.11-.73.33-.29.55-.29,1Z"/>
    <path class="cls-11" d="M276.55,267.82h-.55v-4.8h.59v1.71c.25-.31.57-.47.95-.47.21,0,.42.04.61.13s.35.21.47.36.22.34.29.57.1.46.1.71c0,.6-.15,1.06-.44,1.38s-.65.49-1.06.49-.73-.17-.97-.51v.44ZM276.54,266.05c0,.42.06.72.17.9.19.3.44.46.75.46.26,0,.48-.11.67-.34.19-.22.28-.56.28-1s-.09-.79-.27-1.01c-.18-.22-.4-.32-.65-.32s-.48.11-.67.34c-.19.22-.28.55-.28.97Z"/>
    <path class="cls-11" d="M279.52,266.08c0-.64.18-1.12.54-1.43.3-.26.66-.39,1.09-.39.48,0,.87.16,1.17.47s.46.75.46,1.3c0,.45-.07.8-.2,1.06-.13.26-.33.46-.59.6s-.54.21-.84.21c-.49,0-.88-.16-1.18-.47-.3-.31-.45-.76-.45-1.35ZM280.13,266.08c0,.45.1.78.29,1,.19.22.44.33.73.33s.54-.11.73-.33c.19-.22.29-.56.29-1.02,0-.43-.1-.76-.29-.98-.2-.22-.44-.33-.73-.33s-.54.11-.73.33-.29.55-.29,1Z"/>
    <path class="cls-11" d="M284.76,267.29l.08.52c-.17.03-.31.05-.45.05-.21,0-.38-.03-.5-.1-.12-.07-.2-.16-.25-.27-.05-.11-.07-.34-.07-.7v-2h-.43v-.46h.43v-.86l.59-.35v1.22h.59v.46h-.59v2.04c0,.17.01.28.03.32.02.05.05.09.1.11s.11.04.2.04c.07,0,.15,0,.26-.02Z"/>
    <path class="cls-11" d="M285.34,263.69v-.68h.59v.68h-.59ZM285.34,267.82v-3.48h.59v3.48h-.59Z"/>
    <path class="cls-11" d="M289.1,266.54l.58.08c-.06.4-.23.71-.49.94-.26.23-.58.34-.96.34-.48,0-.86-.16-1.15-.47-.29-.31-.43-.76-.43-1.34,0-.38.06-.7.19-.99.12-.28.31-.49.57-.63s.53-.21.83-.21c.38,0,.69.1.93.29.24.19.39.46.46.81l-.57.09c-.05-.23-.15-.41-.29-.53-.14-.12-.31-.18-.5-.18-.3,0-.54.11-.72.32-.19.21-.28.55-.28,1.01s.09.81.27,1.02c.18.21.41.32.7.32.23,0,.42-.07.58-.21.15-.14.25-.36.29-.66Z"/>
    <path class="cls-11" d="M291.23,267.82l1.84-4.8h.69l1.97,4.8h-.72l-.56-1.46h-2.01l-.53,1.46h-.67ZM292.61,265.84h1.63l-.5-1.33c-.15-.4-.27-.74-.34-1-.06.31-.15.61-.26.92l-.53,1.41Z"/>
    <path class="cls-11" d="M296.15,267.82v-3.48h.53v.53c.14-.25.26-.41.38-.49.12-.08.24-.12.38-.12.2,0,.4.06.61.19l-.2.55c-.14-.08-.29-.13-.43-.13-.13,0-.25.04-.35.12s-.18.19-.22.32c-.07.21-.1.44-.1.69v1.82h-.59Z"/>
    <path class="cls-11" d="M298.39,267.82v-3.48h.53v.49c.11-.17.25-.31.44-.41.18-.1.39-.16.62-.16.26,0,.47.05.63.16s.28.26.35.45c.28-.41.63-.61,1.07-.61.35,0,.61.1.8.29.19.19.28.49.28.88v2.39h-.59v-2.19c0-.24-.02-.41-.06-.51-.04-.1-.11-.19-.21-.25-.1-.06-.22-.1-.35-.1-.24,0-.45.08-.61.24-.16.16-.24.42-.24.78v2.02h-.59v-2.26c0-.26-.05-.46-.14-.59-.1-.13-.25-.2-.47-.2-.17,0-.32.04-.46.13s-.24.21-.31.38c-.06.17-.09.41-.09.73v1.81h-.59Z"/>
    <path class="cls-11" d="M308.12,266.54l.58.08c-.06.4-.23.71-.49.94-.26.23-.58.34-.96.34-.48,0-.86-.16-1.15-.47-.29-.31-.43-.76-.43-1.34,0-.38.06-.7.19-.99.12-.28.31-.49.57-.63s.53-.21.83-.21c.38,0,.69.1.93.29.24.19.39.46.46.81l-.57.09c-.05-.23-.15-.41-.29-.53-.14-.12-.31-.18-.5-.18-.3,0-.54.11-.72.32-.19.21-.28.55-.28,1.01s.09.81.27,1.02c.18.21.41.32.7.32.23,0,.42-.07.58-.21.15-.14.25-.36.29-.66Z"/>
    <path class="cls-11" d="M308.98,266.08c0-.64.18-1.12.54-1.43.3-.26.66-.39,1.09-.39.48,0,.87.16,1.17.47s.46.75.46,1.3c0,.45-.07.8-.2,1.06-.13.26-.33.46-.59.6s-.54.21-.84.21c-.49,0-.88-.16-1.18-.47-.3-.31-.45-.76-.45-1.35ZM309.59,266.08c0,.45.1.78.29,1,.19.22.44.33.73.33s.54-.11.73-.33c.19-.22.29-.56.29-1.02,0-.43-.1-.76-.29-.98-.2-.22-.44-.33-.73-.33s-.54.11-.73.33-.29.55-.29,1Z"/>
    <path class="cls-11" d="M312.7,266.78l.58-.09c.03.23.12.41.27.54s.36.19.63.19.47-.06.6-.17.2-.24.2-.39c0-.13-.06-.24-.17-.31-.08-.05-.28-.12-.6-.2-.43-.11-.73-.2-.9-.28-.17-.08-.29-.19-.38-.33-.09-.14-.13-.3-.13-.47,0-.16.04-.3.11-.43.07-.13.17-.24.29-.33.09-.07.22-.12.38-.17.16-.05.33-.07.51-.07.27,0,.51.04.72.12.21.08.36.19.46.32s.17.31.2.54l-.58.08c-.03-.18-.1-.32-.23-.42-.12-.1-.3-.15-.53-.15-.27,0-.46.04-.58.13-.12.09-.17.19-.17.31,0,.08.02.15.07.21.05.06.12.12.23.16.06.02.23.07.52.15.42.11.71.2.87.27.17.07.29.17.39.31.09.14.14.3.14.5s-.06.38-.17.56c-.11.17-.28.31-.5.4-.22.1-.46.14-.73.14-.45,0-.8-.09-1.03-.28s-.39-.47-.45-.84Z"/>
    <path class="cls-11" d="M317.58,267.29l.08.52c-.17.03-.31.05-.45.05-.21,0-.38-.03-.5-.1-.12-.07-.2-.16-.25-.27-.05-.11-.07-.34-.07-.7v-2h-.43v-.46h.43v-.86l.59-.35v1.22h.59v.46h-.59v2.04c0,.17.01.28.03.32.02.05.05.09.1.11s.11.04.2.04c.07,0,.15,0,.26-.02Z"/>
  </g>
  <g>
    <path class="cls-11" d="M504.05,312.7v-4.8h.96l1.14,3.4c.11.32.18.55.23.71.05-.17.14-.43.26-.77l1.15-3.34h.86v4.8h-.61v-4.02l-1.4,4.02h-.57l-1.39-4.09v4.09h-.61Z"/>
    <path class="cls-11" d="M509.36,310.96c0-.64.18-1.12.54-1.43.3-.26.66-.39,1.09-.39.48,0,.87.16,1.17.47s.46.75.46,1.3c0,.45-.07.8-.2,1.06-.13.26-.33.46-.59.6-.26.14-.54.21-.84.21-.49,0-.88-.16-1.18-.47-.3-.31-.45-.76-.45-1.35ZM509.97,310.96c0,.45.1.78.29,1,.19.22.44.33.73.33s.54-.11.73-.33.29-.56.29-1.02c0-.43-.1-.76-.29-.98-.2-.22-.44-.33-.73-.33s-.54.11-.73.33-.29.55-.29,1Z"/>
    <path class="cls-11" d="M514.6,312.17l.08.52c-.17.03-.31.05-.45.05-.21,0-.38-.03-.5-.1-.12-.07-.2-.16-.25-.27-.05-.11-.07-.34-.07-.7v-2h-.43v-.46h.43v-.86l.59-.35v1.22h.59v.46h-.59v2.04c0,.17.01.28.03.32.02.05.05.09.1.12s.11.04.2.04c.07,0,.15,0,.26-.02Z"/>
    <path class="cls-11" d="M514.96,310.96c0-.64.18-1.12.54-1.43.3-.26.66-.39,1.09-.39.48,0,.87.16,1.17.47s.46.75.46,1.3c0,.45-.07.8-.2,1.06-.13.26-.33.46-.59.6-.26.14-.54.21-.84.21-.49,0-.88-.16-1.18-.47-.3-.31-.45-.76-.45-1.35ZM515.57,310.96c0,.45.1.78.29,1,.19.22.44.33.73.33s.54-.11.73-.33.29-.56.29-1.02c0-.43-.1-.76-.29-.98-.2-.22-.44-.33-.73-.33s-.54.11-.73.33-.29.55-.29,1Z"/>
    <path class="cls-11" d="M518.91,312.7v-3.48h.53v.53c.14-.25.26-.41.38-.49.12-.08.24-.12.38-.12.2,0,.4.06.61.19l-.2.55c-.14-.08-.29-.13-.43-.13-.13,0-.25.04-.35.12-.1.08-.18.19-.22.32-.07.21-.1.44-.1.69v1.82h-.59Z"/>
    <path class="cls-11" d="M525.28,311.42l.58.08c-.06.4-.23.71-.49.94-.26.23-.58.34-.96.34-.48,0-.86-.16-1.15-.47-.29-.31-.43-.76-.43-1.34,0-.38.06-.71.19-.99.12-.28.31-.49.57-.63.25-.14.53-.21.83-.21.38,0,.69.1.93.29.24.19.39.46.46.81l-.57.09c-.05-.23-.15-.41-.29-.53-.14-.12-.31-.18-.5-.18-.3,0-.54.11-.72.32-.19.21-.28.55-.28,1.01s.09.81.27,1.02c.18.21.41.32.7.32.23,0,.42-.07.58-.21.15-.14.25-.36.29-.66Z"/>
    <path class="cls-11" d="M526.15,310.96c0-.64.18-1.12.54-1.43.3-.26.66-.39,1.09-.39.48,0,.87.16,1.17.47s.46.75.46,1.3c0,.45-.07.8-.2,1.06-.13.26-.33.46-.59.6-.26.14-.54.21-.84.21-.49,0-.88-.16-1.18-.47-.3-.31-.45-.76-.45-1.35ZM526.75,310.96c0,.45.1.78.29,1,.19.22.44.33.73.33s.54-.11.73-.33.29-.56.29-1.02c0-.43-.1-.76-.29-.98-.2-.22-.44-.33-.73-.33s-.54.11-.73.33-.29.55-.29,1Z"/>
    <path class="cls-11" d="M529.86,311.66l.58-.09c.03.23.12.41.27.54.15.12.36.19.63.19s.47-.05.6-.17.2-.24.2-.39c0-.13-.06-.24-.17-.31-.08-.05-.28-.12-.6-.2-.43-.11-.73-.2-.9-.28s-.29-.19-.38-.33c-.09-.14-.13-.3-.13-.47,0-.16.04-.3.11-.43.07-.13.17-.24.29-.33.09-.07.22-.12.38-.17.16-.05.33-.07.51-.07.27,0,.51.04.72.12.21.08.36.18.46.32.1.13.17.31.2.54l-.58.08c-.03-.18-.1-.32-.23-.42-.12-.1-.3-.15-.53-.15-.27,0-.46.04-.58.13-.12.09-.17.19-.17.31,0,.08.02.15.07.21.05.06.12.12.23.16.06.02.23.07.52.15.42.11.71.2.87.27.17.07.29.17.39.31.09.14.14.3.14.5s-.06.38-.17.56c-.11.17-.28.31-.5.4-.22.09-.46.14-.73.14-.45,0-.8-.09-1.03-.28-.24-.19-.39-.47-.45-.84Z"/>
    <path class="cls-11" d="M534.74,312.17l.08.52c-.17.03-.31.05-.45.05-.21,0-.38-.03-.5-.1-.12-.07-.2-.16-.25-.27-.05-.11-.07-.34-.07-.7v-2h-.43v-.46h.43v-.86l.59-.35v1.22h.59v.46h-.59v2.04c0,.17.01.28.03.32.02.05.05.09.1.12s.11.04.2.04c.07,0,.15,0,.26-.02Z"/>
  </g>
  <g>
    <path class="cls-11" d="M504.05,299.64v-4.8h.96l1.14,3.4c.11.32.18.55.23.71.05-.17.14-.43.26-.77l1.15-3.34h.86v4.8h-.61v-4.02l-1.4,4.02h-.57l-1.39-4.09v4.09h-.61Z"/>
    <path class="cls-11" d="M509.36,297.9c0-.64.18-1.12.54-1.43.3-.26.66-.39,1.09-.39.48,0,.87.16,1.17.47s.46.75.46,1.3c0,.45-.07.8-.2,1.06-.13.26-.33.46-.59.6-.26.14-.54.21-.84.21-.49,0-.88-.16-1.18-.47-.3-.31-.45-.76-.45-1.35ZM509.97,297.9c0,.45.1.78.29,1,.19.22.44.33.73.33s.54-.11.73-.33c.19-.22.29-.56.29-1.02,0-.43-.1-.76-.29-.98-.2-.22-.44-.33-.73-.33s-.54.11-.73.33-.29.55-.29,1Z"/>
    <path class="cls-11" d="M514.6,299.11l.08.52c-.17.04-.31.05-.45.05-.21,0-.38-.03-.5-.1-.12-.07-.2-.16-.25-.27-.05-.11-.07-.34-.07-.7v-2h-.43v-.46h.43v-.86l.59-.35v1.22h.59v.46h-.59v2.04c0,.17.01.28.03.32.02.05.05.09.1.11s.11.04.2.04c.07,0,.15,0,.26-.02Z"/>
    <path class="cls-11" d="M514.96,297.9c0-.64.18-1.12.54-1.43.3-.26.66-.39,1.09-.39.48,0,.87.16,1.17.47s.46.75.46,1.3c0,.45-.07.8-.2,1.06-.13.26-.33.46-.59.6-.26.14-.54.21-.84.21-.49,0-.88-.16-1.18-.47-.3-.31-.45-.76-.45-1.35ZM515.57,297.9c0,.45.1.78.29,1,.19.22.44.33.73.33s.54-.11.73-.33c.19-.22.29-.56.29-1.02,0-.43-.1-.76-.29-.98-.2-.22-.44-.33-.73-.33s-.54.11-.73.33-.29.55-.29,1Z"/>
    <path class="cls-11" d="M518.9,299.64v-3.48h.53v.53c.14-.25.26-.41.38-.49.12-.08.24-.12.38-.12.2,0,.4.06.61.19l-.2.55c-.14-.08-.29-.13-.43-.13-.13,0-.25.04-.35.12s-.18.19-.22.32c-.07.21-.1.44-.1.69v1.82h-.59Z"/>
    <path class="cls-11" d="M523.01,299.64v-3.48h.53v.49c.11-.17.25-.31.44-.41.18-.1.39-.16.62-.16.26,0,.47.05.63.16s.28.26.35.45c.28-.41.63-.61,1.07-.61.35,0,.61.1.8.29.19.19.28.49.28.88v2.39h-.59v-2.19c0-.24-.02-.41-.06-.51-.04-.1-.11-.19-.21-.25-.1-.06-.22-.1-.35-.1-.24,0-.45.08-.61.24-.16.16-.24.42-.24.78v2.02h-.59v-2.26c0-.26-.05-.46-.14-.59-.1-.13-.25-.2-.47-.2-.17,0-.32.04-.46.13s-.24.21-.31.38c-.06.17-.09.41-.09.73v1.81h-.59Z"/>
    <path class="cls-11" d="M530.87,299.21c-.22.19-.43.32-.63.39s-.42.11-.65.11c-.38,0-.68-.09-.88-.28-.21-.19-.31-.42-.31-.72,0-.17.04-.33.12-.47.08-.14.18-.25.31-.34.12-.09.27-.15.42-.19.12-.03.29-.06.52-.09.48-.06.83-.12,1.05-.2,0-.08,0-.13,0-.15,0-.24-.06-.41-.17-.51-.15-.13-.38-.2-.67-.2-.28,0-.48.05-.62.15-.13.1-.23.27-.29.52l-.58-.08c.05-.25.14-.45.26-.6s.29-.27.52-.35.49-.12.79-.12.54.04.72.1c.19.07.32.16.41.26.09.11.15.24.18.4.02.1.03.28.03.54v.79c0,.55.01.9.04,1.04.02.15.07.28.15.42h-.62c-.06-.12-.1-.27-.12-.43ZM530.82,297.89c-.21.09-.54.16-.96.22-.24.04-.41.07-.51.12-.1.04-.18.11-.23.19-.05.08-.08.18-.08.28,0,.16.06.29.18.39.12.1.29.16.52.16s.43-.05.61-.15c.18-.1.31-.23.39-.41.06-.13.09-.33.09-.59v-.22Z"/>
    <path class="cls-11" d="M532.1,298.6l.58-.09c.03.23.12.41.27.54.15.12.36.19.63.19s.47-.06.6-.17c.13-.11.2-.24.2-.39,0-.13-.06-.24-.17-.31-.08-.05-.28-.12-.6-.2-.43-.11-.73-.2-.9-.28-.17-.08-.29-.19-.38-.33-.09-.14-.13-.3-.13-.47,0-.16.04-.3.11-.43.07-.13.17-.24.29-.33.09-.07.22-.12.38-.17.16-.05.33-.07.51-.07.27,0,.51.04.72.12.21.08.36.19.46.32s.17.31.2.54l-.58.08c-.03-.18-.1-.32-.23-.42-.12-.1-.3-.15-.53-.15-.27,0-.46.04-.58.13-.12.09-.17.19-.17.31,0,.08.02.15.07.21.05.06.12.12.23.16.06.02.23.07.52.15.42.11.71.2.87.27.17.07.29.17.39.31.09.14.14.3.14.5s-.06.38-.17.56c-.11.17-.28.31-.5.4-.22.1-.46.14-.73.14-.45,0-.8-.09-1.03-.28-.24-.19-.39-.47-.45-.84Z"/>
    <path class="cls-11" d="M535.45,298.6l.58-.09c.03.23.12.41.27.54.15.12.36.19.63.19s.47-.06.6-.17c.13-.11.2-.24.2-.39,0-.13-.06-.24-.17-.31-.08-.05-.28-.12-.6-.2-.43-.11-.73-.2-.9-.28-.17-.08-.29-.19-.38-.33-.09-.14-.13-.3-.13-.47,0-.16.04-.3.11-.43.07-.13.17-.24.29-.33.09-.07.22-.12.38-.17.16-.05.33-.07.51-.07.27,0,.51.04.72.12.21.08.36.19.46.32s.17.31.2.54l-.58.08c-.03-.18-.1-.32-.23-.42-.12-.1-.3-.15-.53-.15-.27,0-.46.04-.58.13-.12.09-.17.19-.17.31,0,.08.02.15.07.21.05.06.12.12.23.16.06.02.23.07.52.15.42.11.71.2.87.27.17.07.29.17.39.31.09.14.14.3.14.5s-.06.38-.17.56c-.11.17-.28.31-.5.4-.22.1-.46.14-.73.14-.45,0-.8-.09-1.03-.28-.24-.19-.39-.47-.45-.84Z"/>
  </g>
  <line class="cls-5" x1="635.74" y1="246.68" x2="689.26" y2="246.68"/>
  <g>
    <path class="cls-11" d="M681.43,255.19v-4.24h-1.58v-.57h3.81v.57h-1.59v4.24h-.64Z"/>
    <path class="cls-11" d="M683.27,253.45c0-.64.18-1.12.54-1.43.3-.26.66-.39,1.09-.39.48,0,.87.16,1.17.47s.46.75.46,1.3c0,.45-.07.8-.2,1.06-.13.26-.33.46-.59.6s-.54.21-.84.21c-.49,0-.88-.16-1.18-.47-.3-.31-.45-.76-.45-1.35ZM683.88,253.45c0,.45.1.78.29,1,.19.22.44.33.73.33s.54-.11.73-.33c.19-.22.29-.56.29-1.02,0-.43-.1-.76-.29-.98-.2-.22-.44-.33-.73-.33s-.54.11-.73.33-.29.55-.29,1Z"/>
    <path class="cls-11" d="M688.51,254.66l.08.52c-.17.03-.31.05-.45.05-.21,0-.38-.03-.5-.1-.12-.07-.2-.16-.25-.27-.05-.11-.07-.34-.07-.7v-2h-.43v-.46h.43v-.86l.59-.35v1.22h.59v.46h-.59v2.04c0,.17.01.28.03.32.02.05.05.09.1.11s.11.04.2.04c.07,0,.15,0,.26-.02Z"/>
    <path class="cls-11" d="M691.36,254.76c-.22.19-.43.32-.63.39-.2.08-.42.11-.65.11-.38,0-.68-.09-.88-.28-.21-.19-.31-.43-.31-.72,0-.17.04-.33.12-.47.08-.14.18-.25.31-.34.12-.09.27-.15.42-.19.12-.03.29-.06.52-.09.48-.06.83-.12,1.05-.2,0-.08,0-.13,0-.15,0-.24-.06-.41-.17-.51-.15-.13-.38-.2-.67-.2-.28,0-.48.05-.62.15-.13.1-.23.27-.29.52l-.58-.08c.05-.25.14-.45.26-.6s.29-.27.52-.35.49-.12.79-.12.54.04.72.1c.19.07.32.16.41.26.09.11.15.24.18.4.02.1.03.28.03.54v.79c0,.55.01.9.04,1.04.02.15.07.28.15.42h-.62c-.06-.12-.1-.27-.12-.43ZM691.31,253.44c-.21.09-.54.16-.96.22-.24.04-.41.07-.51.12-.1.04-.18.11-.23.19-.05.08-.08.18-.08.28,0,.16.06.29.18.39.12.1.29.16.52.16s.43-.05.61-.15c.18-.1.31-.24.39-.41.06-.13.09-.33.09-.59v-.22Z"/>
    <path class="cls-11" d="M692.81,255.19v-4.8h.59v4.8h-.59Z"/>
    <path class="cls-11" d="M698.45,253.92l.58.08c-.06.4-.23.71-.49.94-.26.23-.58.34-.96.34-.48,0-.86-.16-1.15-.47-.29-.31-.43-.76-.43-1.34,0-.38.06-.7.19-.99.12-.28.31-.49.57-.63s.53-.21.83-.21c.38,0,.69.1.93.29.24.19.39.46.46.81l-.57.09c-.05-.23-.15-.41-.29-.53-.14-.12-.31-.18-.5-.18-.3,0-.54.11-.72.32-.19.21-.28.55-.28,1.01s.09.81.27,1.02c.18.21.41.32.7.32.23,0,.42-.07.58-.21.15-.14.25-.36.29-.66Z"/>
    <path class="cls-11" d="M699.31,253.45c0-.64.18-1.12.54-1.43.3-.26.66-.39,1.09-.39.48,0,.87.16,1.17.47s.46.75.46,1.3c0,.45-.07.8-.2,1.06-.13.26-.33.46-.59.6s-.54.21-.84.21c-.49,0-.88-.16-1.18-.47-.3-.31-.45-.76-.45-1.35ZM699.92,253.45c0,.45.1.78.29,1,.19.22.44.33.73.33s.54-.11.73-.33c.19-.22.29-.56.29-1.02,0-.43-.1-.76-.29-.98-.2-.22-.44-.33-.73-.33s-.54.11-.73.33-.29.55-.29,1Z"/>
    <path class="cls-11" d="M703.03,254.15l.58-.09c.03.23.12.41.27.54s.36.19.63.19.47-.06.6-.17.2-.24.2-.39c0-.13-.06-.24-.17-.31-.08-.05-.28-.12-.6-.2-.43-.11-.73-.2-.9-.28-.17-.08-.29-.19-.38-.33-.09-.14-.13-.3-.13-.47,0-.16.04-.3.11-.43.07-.13.17-.24.29-.33.09-.07.22-.12.38-.17.16-.05.33-.07.51-.07.27,0,.51.04.72.12.21.08.36.19.46.32s.17.31.2.54l-.58.08c-.03-.18-.1-.32-.23-.42-.12-.1-.3-.15-.53-.15-.27,0-.46.04-.58.13-.12.09-.17.19-.17.31,0,.08.02.15.07.21.05.06.12.12.23.16.06.02.23.07.52.15.42.11.71.2.87.27.17.07.29.17.39.31.09.14.14.3.14.5s-.06.38-.17.56c-.11.17-.28.31-.5.4-.22.1-.46.14-.73.14-.45,0-.8-.09-1.03-.28s-.39-.47-.45-.84Z"/>
    <path class="cls-11" d="M707.91,254.66l.08.52c-.17.03-.31.05-.45.05-.21,0-.38-.03-.5-.1-.12-.07-.2-.16-.25-.27-.05-.11-.07-.34-.07-.7v-2h-.43v-.46h.43v-.86l.59-.35v1.22h.59v.46h-.59v2.04c0,.17.01.28.03.32.02.05.05.09.1.11s.11.04.2.04c.07,0,.15,0,.26-.02Z"/>
  </g>
  <g>
    <polyline class="cls-8" points="658.12 401.95 658.12 407.95 652.12 407.95"/>
    <line class="cls-6" x1="639.84" y1="407.95" x2="154.99" y2="407.95"/>
    <polyline class="cls-8" points="148.85 407.95 142.85 407.95 142.85 401.95"/>
    <line class="cls-3" x1="142.85" y1="389.45" x2="142.85" y2="145.67"/>
    <polyline class="cls-8" points="142.85 139.42 142.85 133.42 148.85 133.42"/>
    <line class="cls-6" x1="161.12" y1="133.42" x2="645.98" y2="133.42"/>
    <polyline class="cls-8" points="652.12 133.42 658.12 133.42 658.12 139.42"/>
    <line class="cls-3" x1="658.12" y1="151.92" x2="658.12" y2="395.7"/>
  </g>
</svg>